<svg width="211" height="131" viewBox="0 0 211 131" fill="none" xmlns="http://www.w3.org/2000/svg">
<path d="M0 30C0 13.4315 13.4315 0 30 0H181C197.569 0 211 13.4315 211 30V92.16H0V30Z" fill="#2FD671"/>
<path d="M58.7202 19.4032H45.226V38.9675H24.5348V52.3071H45.226V72.7614H58.7202V52.3071H78.5116V38.9675H58.7202V19.4032Z" fill="white"/>
<path d="M152.116 29.1046C152.116 34.4626 147.722 38.8061 142.302 38.8061C136.882 38.8061 132.488 34.4626 132.488 29.1046C132.488 23.7467 136.882 19.4032 142.302 19.4032C147.722 19.4032 152.116 23.7467 152.116 29.1046Z" fill="white"/>
<path d="M186.465 29.1045C186.465 34.4625 182.071 38.806 176.651 38.806C171.231 38.806 166.837 34.4625 166.837 29.1045C166.837 23.7465 171.231 19.403 176.651 19.403C182.071 19.403 186.465 23.7465 186.465 29.1045Z" fill="white"/>
<path d="M152.116 63.0596C152.116 68.4176 147.722 72.7611 142.302 72.7611C136.882 72.7611 132.488 68.4176 132.488 63.0596C132.488 57.7016 136.882 53.3581 142.302 53.3581C147.722 53.3581 152.116 57.7016 152.116 63.0596Z" fill="white"/>
<path d="M186.465 63.0596C186.465 68.4176 182.071 72.7611 176.651 72.7611C171.231 72.7611 166.837 68.4176 166.837 63.0596C166.837 57.7016 171.231 53.3581 176.651 53.3581C182.071 53.3581 186.465 57.7016 186.465 63.0596Z" fill="white"/>
<path d="M8.7958 130H1.5028V109.049H8.7958V130ZM2.0774 107.37C1.4586 106.839 1.1492 105.985 1.1492 104.806C1.1492 103.627 1.4586 102.758 2.0774 102.198C2.6962 101.638 3.7128 101.358 5.1272 101.358C6.5416 101.358 7.5582 101.638 8.177 102.198C8.7958 102.758 9.1052 103.627 9.1052 104.806C9.1052 105.955 8.7958 106.81 8.177 107.37C7.5582 107.9 6.5416 108.165 5.1272 108.165C3.7128 108.165 2.6962 107.9 2.0774 107.37Z" fill="#2FD671"/>
<path d="M19.0246 116.563C19.0246 119.156 19.2751 121.013 19.776 122.132C20.3064 123.223 21.161 123.768 22.3396 123.768C23.5183 123.768 25.1832 123.488 27.3342 122.928L28.4834 129.16C26.1556 130.015 23.813 130.442 21.4556 130.442C17.9196 130.442 15.3413 129.278 13.7206 126.95C12.1294 124.593 11.3338 121.101 11.3338 116.475C11.3338 111.819 12.1736 108.268 13.8532 105.823C15.5328 103.347 18.2732 102.11 22.0744 102.11C24.3139 102.11 26.4502 102.581 28.4834 103.524L27.29 110.375C24.9916 109.609 23.3857 109.226 22.4722 109.226C21.1757 109.226 20.277 109.801 19.776 110.95C19.2751 112.07 19.0246 113.941 19.0246 116.563Z" fill="#111111"/>
<path d="M50.6346 130H43.1206V119.613H37.9492V130H30.3468V102.552H37.9492V113.337H43.1206V102.552H50.6346V130Z" fill="#111111"/>
<path d="M74.0592 130H66.6778L65.838 125.668H60.6224L59.7826 130H52.7548L57.7936 102.552H69.0204L74.0592 130ZM64.9982 120.497L63.4512 110.685H63.1418L61.5948 120.497H64.9982Z" fill="#111111"/>
<path d="M90.3269 130H76.3596V102.552H83.9178V123.856H90.7689L90.3269 130Z" fill="#111111"/>
<path d="M106.341 130H92.3735V102.552H99.9317V123.856H106.783L106.341 130Z" fill="#111111"/>
<path d="M123.239 130H108.387V102.552H123.681L123.239 109.314H115.946V113.425H122.266V119.259H115.946V123.812H123.681L123.239 130Z" fill="#111111"/>
<path d="M146.28 130H139.031L133.329 117.226H132.976V130H126.257V102.552H133.727L139.164 115.723H139.517V102.552H146.28V130Z" fill="#111111"/>
<path d="M166.701 110.729C163.872 109.874 161.795 109.447 160.469 109.447C159.172 109.447 158.274 110.022 157.773 111.171C157.301 112.32 157.065 114.147 157.065 116.652C157.065 119.127 157.286 120.939 157.728 122.088C158.2 123.208 159.143 123.768 160.557 123.768C160.97 123.768 161.765 123.65 162.944 123.414V120.055H160.955V114.839H169.397V130H164.182L163.474 128.586H163.298C162.797 128.998 162.399 129.308 162.104 129.514C161.279 130.133 160.115 130.442 158.612 130.442C152.454 130.442 149.375 125.786 149.375 116.475C149.375 111.819 150.185 108.268 151.806 105.823C153.426 103.347 156.152 102.11 159.983 102.11C163.047 102.11 165.684 102.581 167.894 103.524L166.701 110.729Z" fill="#111111"/>
<path d="M187.942 130H173.09V102.552H188.384L187.942 109.314H180.649V113.425H186.969V119.259H180.649V123.812H188.384L187.942 130Z" fill="#111111"/>
<path d="M209.745 111.259C209.745 112.909 209.495 114.28 208.994 115.37C208.493 116.46 207.712 117.447 206.651 118.331L210.32 130H202.143L199.402 120.099H198.386V130H190.96V102.552H201.215C204.161 102.552 206.312 103.244 207.668 104.629C209.053 106.014 209.745 108.224 209.745 111.259ZM199.535 115.458C200.301 115.458 200.846 115.237 201.17 114.795C201.495 114.353 201.657 113.558 201.657 112.408C201.657 111.23 201.495 110.419 201.17 109.977C200.846 109.506 200.316 109.27 199.579 109.27H198.386V115.458H199.535Z" fill="#111111"/>
</svg>
