<svg width="1363" height="163" viewBox="0 0 1363 163" fill="none" xmlns="http://www.w3.org/2000/svg">
<path d="M0 15C0 6.71573 6.71573 0 15 0H37V163H15C6.71573 163 0 156.284 0 148V15Z" fill="#2FD671"/>
<rect width="1097" height="163" transform="translate(37)" fill="#F0F0F0"/>
<path d="M101.906 53.9219L94.3945 51.2383V48.0859L104.602 52.375V54.6367L101.906 53.9219ZM94.3945 56.1719L101.918 53.4297L104.602 52.7852V55.0352L94.3945 59.3242V56.1719ZM116.25 48.3203V61H112.863V48.3203H116.25ZM112.652 45.0156C112.652 44.5234 112.824 44.1172 113.168 43.7969C113.512 43.4766 113.973 43.3164 114.551 43.3164C115.121 43.3164 115.578 43.4766 115.922 43.7969C116.273 44.1172 116.449 44.5234 116.449 45.0156C116.449 45.5078 116.273 45.9141 115.922 46.2344C115.578 46.5547 115.121 46.7148 114.551 46.7148C113.973 46.7148 113.512 46.5547 113.168 46.2344C112.824 45.9141 112.652 45.5078 112.652 45.0156ZM129.141 55.3398H132.645C132.574 56.4883 132.258 57.5078 131.695 58.3984C131.141 59.2891 130.363 59.9844 129.363 60.4844C128.371 60.9844 127.176 61.2344 125.777 61.2344C124.684 61.2344 123.703 61.0469 122.836 60.6719C121.969 60.2891 121.227 59.7422 120.609 59.0312C120 58.3203 119.535 57.4609 119.215 56.4531C118.895 55.4453 118.734 54.3164 118.734 53.0664V51.8828C118.734 50.6328 118.898 49.5039 119.227 48.4961C119.562 47.4805 120.039 46.6172 120.656 45.9062C121.281 45.1953 122.027 44.6484 122.895 44.2656C123.762 43.8828 124.73 43.6914 125.801 43.6914C127.223 43.6914 128.422 43.9492 129.398 44.4648C130.383 44.9805 131.145 45.6914 131.684 46.5977C132.23 47.5039 132.559 48.5352 132.668 49.6914H129.152C129.113 49.0039 128.977 48.4219 128.742 47.9453C128.508 47.4609 128.152 47.0977 127.676 46.8555C127.207 46.6055 126.582 46.4805 125.801 46.4805C125.215 46.4805 124.703 46.5898 124.266 46.8086C123.828 47.0273 123.461 47.3594 123.164 47.8047C122.867 48.25 122.645 48.8125 122.496 49.4922C122.355 50.1641 122.285 50.9531 122.285 51.8594V53.0664C122.285 53.9492 122.352 54.7266 122.484 55.3984C122.617 56.0625 122.82 56.625 123.094 57.0859C123.375 57.5391 123.734 57.8828 124.172 58.1172C124.617 58.3438 125.152 58.457 125.777 58.457C126.512 58.457 127.117 58.3398 127.594 58.1055C128.07 57.8711 128.434 57.5234 128.684 57.0625C128.941 56.6016 129.094 56.0273 129.141 55.3398ZM138.035 43V61H134.66V43H138.035ZM137.555 54.2148H136.629C136.637 53.332 136.754 52.5195 136.98 51.7773C137.207 51.0273 137.531 50.3789 137.953 49.832C138.375 49.2773 138.879 48.8477 139.465 48.543C140.059 48.2383 140.715 48.0859 141.434 48.0859C142.059 48.0859 142.625 48.1758 143.133 48.3555C143.648 48.5273 144.09 48.8086 144.457 49.1992C144.832 49.582 145.121 50.0859 145.324 50.7109C145.527 51.3359 145.629 52.0938 145.629 52.9844V61H142.23V52.9609C142.23 52.3984 142.148 51.957 141.984 51.6367C141.828 51.3086 141.598 51.0781 141.293 50.9453C140.996 50.8047 140.629 50.7344 140.191 50.7344C139.707 50.7344 139.293 50.8242 138.949 51.0039C138.613 51.1836 138.344 51.4336 138.141 51.7539C137.938 52.0664 137.789 52.4336 137.695 52.8555C137.602 53.2773 137.555 53.7305 137.555 54.2148ZM155.039 58.1406V52.4922C155.039 52.0859 154.973 51.7383 154.84 51.4492C154.707 51.1523 154.5 50.9219 154.219 50.7578C153.945 50.5938 153.59 50.5117 153.152 50.5117C152.777 50.5117 152.453 50.5781 152.18 50.7109C151.906 50.8359 151.695 51.0195 151.547 51.2617C151.398 51.4961 151.324 51.7734 151.324 52.0938H147.949C147.949 51.5547 148.074 51.043 148.324 50.5586C148.574 50.0742 148.938 49.6484 149.414 49.2812C149.891 48.9062 150.457 48.6133 151.113 48.4023C151.777 48.1914 152.52 48.0859 153.34 48.0859C154.324 48.0859 155.199 48.25 155.965 48.5781C156.73 48.9062 157.332 49.3984 157.77 50.0547C158.215 50.7109 158.438 51.5312 158.438 52.5156V57.9414C158.438 58.6367 158.48 59.207 158.566 59.6523C158.652 60.0898 158.777 60.4727 158.941 60.8008V61H155.531C155.367 60.6562 155.242 60.2266 155.156 59.7109C155.078 59.1875 155.039 58.6641 155.039 58.1406ZM155.484 53.2773L155.508 55.1875H153.621C153.176 55.1875 152.789 55.2383 152.461 55.3398C152.133 55.4414 151.863 55.5859 151.652 55.7734C151.441 55.9531 151.285 56.1641 151.184 56.4062C151.09 56.6484 151.043 56.9141 151.043 57.2031C151.043 57.4922 151.109 57.7539 151.242 57.9883C151.375 58.2148 151.566 58.3945 151.816 58.5273C152.066 58.6523 152.359 58.7148 152.695 58.7148C153.203 58.7148 153.645 58.6133 154.02 58.4102C154.395 58.207 154.684 57.957 154.887 57.6602C155.098 57.3633 155.207 57.082 155.215 56.8164L156.105 58.2461C155.98 58.5664 155.809 58.8984 155.59 59.2422C155.379 59.5859 155.109 59.9102 154.781 60.2148C154.453 60.5117 154.059 60.7578 153.598 60.9531C153.137 61.1406 152.59 61.2344 151.957 61.2344C151.152 61.2344 150.422 61.0742 149.766 60.7539C149.117 60.4258 148.602 59.9766 148.219 59.4062C147.844 58.8281 147.656 58.1719 147.656 57.4375C147.656 56.7734 147.781 56.1836 148.031 55.668C148.281 55.1523 148.648 54.7188 149.133 54.3672C149.625 54.0078 150.238 53.7383 150.973 53.5586C151.707 53.3711 152.559 53.2773 153.527 53.2773H155.484ZM164.602 43V61H161.215V43H164.602ZM170.953 43V61H167.566V43H170.953ZM179.578 61.2344C178.594 61.2344 177.711 61.0781 176.93 60.7656C176.148 60.4453 175.484 60.0039 174.938 59.4414C174.398 58.8789 173.984 58.2266 173.695 57.4844C173.406 56.7344 173.262 55.9375 173.262 55.0938V54.625C173.262 53.6641 173.398 52.7852 173.672 51.9883C173.945 51.1914 174.336 50.5 174.844 49.9141C175.359 49.3281 175.984 48.8789 176.719 48.5664C177.453 48.2461 178.281 48.0859 179.203 48.0859C180.102 48.0859 180.898 48.2344 181.594 48.5312C182.289 48.8281 182.871 49.25 183.34 49.7969C183.816 50.3438 184.176 51 184.418 51.7656C184.66 52.5234 184.781 53.3672 184.781 54.2969V55.7031H174.703V53.4531H181.465V53.1953C181.465 52.7266 181.379 52.3086 181.207 51.9414C181.043 51.5664 180.793 51.2695 180.457 51.0508C180.121 50.832 179.691 50.7227 179.168 50.7227C178.723 50.7227 178.34 50.8203 178.02 51.0156C177.699 51.2109 177.438 51.4844 177.234 51.8359C177.039 52.1875 176.891 52.6016 176.789 53.0781C176.695 53.5469 176.648 54.0625 176.648 54.625V55.0938C176.648 55.6016 176.719 56.0703 176.859 56.5C177.008 56.9297 177.215 57.3008 177.48 57.6133C177.754 57.9258 178.082 58.168 178.465 58.3398C178.855 58.5117 179.297 58.5977 179.789 58.5977C180.398 58.5977 180.965 58.4805 181.488 58.2461C182.02 58.0039 182.477 57.6406 182.859 57.1562L184.5 58.9375C184.234 59.3203 183.871 59.6875 183.41 60.0391C182.957 60.3906 182.41 60.6797 181.77 60.9062C181.129 61.125 180.398 61.2344 179.578 61.2344ZM190.008 51.0273V61H186.633V48.3203H189.797L190.008 51.0273ZM189.516 54.2148H188.602C188.602 53.2773 188.723 52.4336 188.965 51.6836C189.207 50.9258 189.547 50.2812 189.984 49.75C190.422 49.2109 190.941 48.8008 191.543 48.5195C192.152 48.2305 192.832 48.0859 193.582 48.0859C194.176 48.0859 194.719 48.1719 195.211 48.3438C195.703 48.5156 196.125 48.7891 196.477 49.1641C196.836 49.5391 197.109 50.0352 197.297 50.6523C197.492 51.2695 197.59 52.0234 197.59 52.9141V61H194.191V52.9023C194.191 52.3398 194.113 51.9023 193.957 51.5898C193.801 51.2773 193.57 51.0586 193.266 50.9336C192.969 50.8008 192.602 50.7344 192.164 50.7344C191.711 50.7344 191.316 50.8242 190.98 51.0039C190.652 51.1836 190.379 51.4336 190.16 51.7539C189.949 52.0664 189.789 52.4336 189.68 52.8555C189.57 53.2773 189.516 53.7305 189.516 54.2148ZM208.184 48.3203H211.242V60.5781C211.242 61.7344 210.984 62.7148 210.469 63.5195C209.961 64.332 209.25 64.9453 208.336 65.3594C207.422 65.7812 206.359 65.9922 205.148 65.9922C204.617 65.9922 204.055 65.9219 203.461 65.7812C202.875 65.6406 202.312 65.4219 201.773 65.125C201.242 64.8281 200.797 64.4531 200.438 64L201.926 62.0078C202.316 62.4609 202.77 62.8125 203.285 63.0625C203.801 63.3203 204.371 63.4492 204.996 63.4492C205.605 63.4492 206.121 63.3359 206.543 63.1094C206.965 62.8906 207.289 62.5664 207.516 62.1367C207.742 61.7148 207.855 61.2031 207.855 60.6016V51.25L208.184 48.3203ZM199.652 54.8125V54.5664C199.652 53.5977 199.77 52.7188 200.004 51.9297C200.246 51.1328 200.586 50.4492 201.023 49.8789C201.469 49.3086 202.008 48.8672 202.641 48.5547C203.273 48.2422 203.988 48.0859 204.785 48.0859C205.629 48.0859 206.336 48.2422 206.906 48.5547C207.477 48.8672 207.945 49.3125 208.312 49.8906C208.68 50.4609 208.965 51.1367 209.168 51.918C209.379 52.6914 209.543 53.5391 209.66 54.4609V55C209.543 55.8828 209.367 56.7031 209.133 57.4609C208.898 58.2188 208.59 58.8828 208.207 59.4531C207.824 60.0156 207.348 60.4531 206.777 60.7656C206.215 61.0781 205.543 61.2344 204.762 61.2344C203.98 61.2344 203.273 61.0742 202.641 60.7539C202.016 60.4336 201.48 59.9844 201.035 59.4062C200.59 58.8281 200.246 58.1484 200.004 57.3672C199.77 56.5859 199.652 55.7344 199.652 54.8125ZM203.027 54.5664V54.8125C203.027 55.3359 203.078 55.8242 203.18 56.2773C203.281 56.7305 203.438 57.1328 203.648 57.4844C203.867 57.8281 204.137 58.0977 204.457 58.293C204.785 58.4805 205.172 58.5742 205.617 58.5742C206.234 58.5742 206.738 58.4453 207.129 58.1875C207.52 57.9219 207.812 57.5586 208.008 57.0977C208.203 56.6367 208.316 56.1055 208.348 55.5039V53.9688C208.332 53.4766 208.266 53.0352 208.148 52.6445C208.031 52.2461 207.867 51.9062 207.656 51.625C207.445 51.3438 207.172 51.125 206.836 50.9688C206.5 50.8125 206.102 50.7344 205.641 50.7344C205.195 50.7344 204.809 50.8359 204.48 51.0391C204.16 51.2344 203.891 51.5039 203.672 51.8477C203.461 52.1914 203.301 52.5977 203.191 53.0664C203.082 53.5273 203.027 54.0273 203.027 54.5664ZM219.703 61.2344C218.719 61.2344 217.836 61.0781 217.055 60.7656C216.273 60.4453 215.609 60.0039 215.062 59.4414C214.523 58.8789 214.109 58.2266 213.82 57.4844C213.531 56.7344 213.387 55.9375 213.387 55.0938V54.625C213.387 53.6641 213.523 52.7852 213.797 51.9883C214.07 51.1914 214.461 50.5 214.969 49.9141C215.484 49.3281 216.109 48.8789 216.844 48.5664C217.578 48.2461 218.406 48.0859 219.328 48.0859C220.227 48.0859 221.023 48.2344 221.719 48.5312C222.414 48.8281 222.996 49.25 223.465 49.7969C223.941 50.3438 224.301 51 224.543 51.7656C224.785 52.5234 224.906 53.3672 224.906 54.2969V55.7031H214.828V53.4531H221.59V53.1953C221.59 52.7266 221.504 52.3086 221.332 51.9414C221.168 51.5664 220.918 51.2695 220.582 51.0508C220.246 50.832 219.816 50.7227 219.293 50.7227C218.848 50.7227 218.465 50.8203 218.145 51.0156C217.824 51.2109 217.562 51.4844 217.359 51.8359C217.164 52.1875 217.016 52.6016 216.914 53.0781C216.82 53.5469 216.773 54.0625 216.773 54.625V55.0938C216.773 55.6016 216.844 56.0703 216.984 56.5C217.133 56.9297 217.34 57.3008 217.605 57.6133C217.879 57.9258 218.207 58.168 218.59 58.3398C218.98 58.5117 219.422 58.5977 219.914 58.5977C220.523 58.5977 221.09 58.4805 221.613 58.2461C222.145 58.0039 222.602 57.6406 222.984 57.1562L224.625 58.9375C224.359 59.3203 223.996 59.6875 223.535 60.0391C223.082 60.3906 222.535 60.6797 221.895 60.9062C221.254 61.125 220.523 61.2344 219.703 61.2344ZM230.203 51.0859V61H226.828V48.3203H230.004L230.203 51.0859ZM234.023 48.2383L233.965 51.3672C233.801 51.3438 233.602 51.3242 233.367 51.3086C233.141 51.2852 232.934 51.2734 232.746 51.2734C232.27 51.2734 231.855 51.3359 231.504 51.4609C231.16 51.5781 230.871 51.7539 230.637 51.9883C230.41 52.2227 230.238 52.5078 230.121 52.8438C230.012 53.1797 229.949 53.5625 229.934 53.9922L229.254 53.7812C229.254 52.9609 229.336 52.207 229.5 51.5195C229.664 50.8242 229.902 50.2188 230.215 49.7031C230.535 49.1875 230.926 48.7891 231.387 48.5078C231.848 48.2266 232.375 48.0859 232.969 48.0859C233.156 48.0859 233.348 48.1016 233.543 48.1328C233.738 48.1562 233.898 48.1914 234.023 48.2383Z" fill="#888888"/>
<path d="M118.594 98.4219V104.75H101.086V98.4219H118.594ZM103.828 84.875V119H95.6016V84.875H103.828ZM124.125 84.875V119H115.922V84.875H124.125ZM127.992 106.578V106.086C127.992 104.227 128.258 102.516 128.789 100.953C129.32 99.375 130.102 98.0078 131.133 96.8516C132.164 95.6953 133.438 94.7969 134.953 94.1562C136.469 93.5 138.219 93.1719 140.203 93.1719C142.203 93.1719 143.961 93.5 145.477 94.1562C147.008 94.7969 148.289 95.6953 149.32 96.8516C150.352 98.0078 151.133 99.375 151.664 100.953C152.195 102.516 152.461 104.227 152.461 106.086V106.578C152.461 108.422 152.195 110.133 151.664 111.711C151.133 113.273 150.352 114.641 149.32 115.812C148.289 116.969 147.016 117.867 145.5 118.508C143.984 119.148 142.234 119.469 140.25 119.469C138.266 119.469 136.508 119.148 134.977 118.508C133.445 117.867 132.164 116.969 131.133 115.812C130.102 114.641 129.32 113.273 128.789 111.711C128.258 110.133 127.992 108.422 127.992 106.578ZM135.891 106.086V106.578C135.891 107.531 135.961 108.422 136.102 109.25C136.242 110.078 136.477 110.805 136.805 111.43C137.133 112.039 137.578 112.516 138.141 112.859C138.703 113.203 139.406 113.375 140.25 113.375C141.078 113.375 141.766 113.203 142.312 112.859C142.875 112.516 143.32 112.039 143.648 111.43C143.977 110.805 144.211 110.078 144.352 109.25C144.492 108.422 144.562 107.531 144.562 106.578V106.086C144.562 105.164 144.492 104.297 144.352 103.484C144.211 102.656 143.977 101.93 143.648 101.305C143.32 100.664 142.875 100.164 142.312 99.8047C141.75 99.4453 141.047 99.2656 140.203 99.2656C139.375 99.2656 138.68 99.4453 138.117 99.8047C137.57 100.164 137.133 100.664 136.805 101.305C136.477 101.93 136.242 102.656 136.102 103.484C135.961 104.297 135.891 105.164 135.891 106.086ZM163.688 111.453L168.375 93.6406H173.32L171.562 102.57L166.922 119H162.961L163.688 111.453ZM161.836 93.6406L164.742 111.312L165.07 119H160.266L154.266 93.6406H161.836ZM177.492 110.938L180.422 93.6406H187.992L182.039 119H177.234L177.492 110.938ZM173.883 93.6406L178.617 111.406L179.344 119H175.336L170.789 102.617L169.102 93.6406H173.883ZM218.297 84.875V119H210.07V84.875H218.297ZM228.562 84.875V91.2266H200.039V84.875H228.562ZM225.773 106.578V106.086C225.773 104.227 226.039 102.516 226.57 100.953C227.102 99.375 227.883 98.0078 228.914 96.8516C229.945 95.6953 231.219 94.7969 232.734 94.1562C234.25 93.5 236 93.1719 237.984 93.1719C239.984 93.1719 241.742 93.5 243.258 94.1562C244.789 94.7969 246.07 95.6953 247.102 96.8516C248.133 98.0078 248.914 99.375 249.445 100.953C249.977 102.516 250.242 104.227 250.242 106.086V106.578C250.242 108.422 249.977 110.133 249.445 111.711C248.914 113.273 248.133 114.641 247.102 115.812C246.07 116.969 244.797 117.867 243.281 118.508C241.766 119.148 240.016 119.469 238.031 119.469C236.047 119.469 234.289 119.148 232.758 118.508C231.227 117.867 229.945 116.969 228.914 115.812C227.883 114.641 227.102 113.273 226.57 111.711C226.039 110.133 225.773 108.422 225.773 106.578ZM233.672 106.086V106.578C233.672 107.531 233.742 108.422 233.883 109.25C234.023 110.078 234.258 110.805 234.586 111.43C234.914 112.039 235.359 112.516 235.922 112.859C236.484 113.203 237.188 113.375 238.031 113.375C238.859 113.375 239.547 113.203 240.094 112.859C240.656 112.516 241.102 112.039 241.43 111.43C241.758 110.805 241.992 110.078 242.133 109.25C242.273 108.422 242.344 107.531 242.344 106.578V106.086C242.344 105.164 242.273 104.297 242.133 103.484C241.992 102.656 241.758 101.93 241.43 101.305C241.102 100.664 240.656 100.164 240.094 99.8047C239.531 99.4453 238.828 99.2656 237.984 99.2656C237.156 99.2656 236.461 99.4453 235.898 99.8047C235.352 100.164 234.914 100.664 234.586 101.305C234.258 101.93 234.023 102.656 233.883 103.484C233.742 104.297 233.672 105.164 233.672 106.086ZM266.086 84.875H279.516C282.141 84.875 284.422 85.2656 286.359 86.0469C288.297 86.8281 289.789 87.9844 290.836 89.5156C291.898 91.0469 292.43 92.9375 292.43 95.1875C292.43 97.1406 292.125 98.7734 291.516 100.086C290.906 101.398 290.055 102.484 288.961 103.344C287.883 104.188 286.625 104.883 285.188 105.43L282.492 106.953H271.219L271.172 100.602H279.516C280.562 100.602 281.43 100.414 282.117 100.039C282.805 99.6641 283.32 99.1328 283.664 98.4453C284.023 97.7422 284.203 96.9062 284.203 95.9375C284.203 94.9531 284.023 94.1094 283.664 93.4062C283.305 92.7031 282.773 92.1641 282.07 91.7891C281.383 91.4141 280.531 91.2266 279.516 91.2266H274.312V119H266.086V84.875ZM284.766 119L277.219 103.906L285.938 103.859L293.578 118.648V119H284.766ZM311.836 112.836V93.6406H319.758V119H312.352L311.836 112.836ZM312.586 107.68L314.648 107.633C314.648 109.336 314.445 110.914 314.039 112.367C313.633 113.805 313.031 115.055 312.234 116.117C311.453 117.18 310.484 118.008 309.328 118.602C308.188 119.18 306.867 119.469 305.367 119.469C304.117 119.469 302.969 119.297 301.922 118.953C300.891 118.594 300 118.039 299.25 117.289C298.5 116.523 297.914 115.547 297.492 114.359C297.086 113.156 296.883 111.719 296.883 110.047V93.6406H304.781V110.094C304.781 110.656 304.852 111.141 304.992 111.547C305.133 111.953 305.336 112.297 305.602 112.578C305.867 112.844 306.195 113.047 306.586 113.188C306.992 113.312 307.453 113.375 307.969 113.375C309.156 113.375 310.086 113.125 310.758 112.625C311.43 112.125 311.898 111.445 312.164 110.586C312.445 109.727 312.586 108.758 312.586 107.68ZM331.875 99.0547V119H323.977V93.6406H331.383L331.875 99.0547ZM330.938 105.453L329.086 105.5C329.086 103.562 329.32 101.836 329.789 100.32C330.258 98.7891 330.922 97.4922 331.781 96.4297C332.641 95.3672 333.664 94.5625 334.852 94.0156C336.055 93.4531 337.391 93.1719 338.859 93.1719C340.031 93.1719 341.102 93.3438 342.07 93.6875C343.055 94.0312 343.898 94.5859 344.602 95.3516C345.32 96.1172 345.867 97.1328 346.242 98.3984C346.633 99.6484 346.828 101.195 346.828 103.039V119H338.883V103.016C338.883 102 338.742 101.227 338.461 100.695C338.18 100.148 337.773 99.7734 337.242 99.5703C336.711 99.3672 336.062 99.2656 335.297 99.2656C334.484 99.2656 333.797 99.4219 333.234 99.7344C332.672 100.047 332.219 100.484 331.875 101.047C331.547 101.594 331.305 102.242 331.148 102.992C331.008 103.742 330.938 104.562 330.938 105.453ZM363.773 108.195H357.047C357.047 106.82 357.141 105.609 357.328 104.562C357.531 103.5 357.875 102.547 358.359 101.703C358.844 100.859 359.5 100.078 360.328 99.3594C361.062 98.75 361.695 98.1641 362.227 97.6016C362.758 97.0391 363.164 96.4688 363.445 95.8906C363.727 95.3125 363.867 94.6953 363.867 94.0391C363.867 93.2266 363.75 92.5625 363.516 92.0469C363.297 91.5312 362.961 91.1484 362.508 90.8984C362.07 90.6328 361.516 90.5 360.844 90.5C360.297 90.5 359.781 90.6328 359.297 90.8984C358.828 91.1641 358.445 91.5781 358.148 92.1406C357.852 92.6875 357.688 93.4141 357.656 94.3203H349.711C349.758 91.9922 350.273 90.1016 351.258 88.6484C352.258 87.1797 353.586 86.1094 355.242 85.4375C356.914 84.75 358.781 84.4062 360.844 84.4062C363.125 84.4062 365.086 84.7578 366.727 85.4609C368.367 86.1641 369.625 87.2109 370.5 88.6016C371.375 89.9766 371.812 91.6719 371.812 93.6875C371.812 95.0312 371.555 96.2031 371.039 97.2031C370.539 98.1875 369.859 99.1094 369 99.9688C368.156 100.812 367.211 101.719 366.164 102.688C365.258 103.484 364.641 104.297 364.312 105.125C363.984 105.938 363.805 106.961 363.773 108.195ZM356.086 115.32C356.086 114.195 356.492 113.258 357.305 112.508C358.117 111.742 359.172 111.359 360.469 111.359C361.766 111.359 362.82 111.742 363.633 112.508C364.445 113.258 364.852 114.195 364.852 115.32C364.852 116.445 364.445 117.391 363.633 118.156C362.82 118.906 361.766 119.281 360.469 119.281C359.172 119.281 358.117 118.906 357.305 118.156C356.492 117.391 356.086 116.445 356.086 115.32Z" fill="black"/>
<path d="M1134 0H1348C1356.28 0 1363 6.71573 1363 15V148C1363 156.284 1356.28 163 1348 163H1134V0Z" fill="#2FD671"/>
<path d="M1260.62 78.8078C1263.81 78.8078 1266.93 79.7552 1269.59 81.5302C1272.25 83.3052 1274.32 85.8281 1275.54 88.7798C1276.76 91.7315 1277.08 94.9795 1276.46 98.1131C1275.84 101.247 1274.3 104.125 1272.04 106.384C1269.78 108.643 1266.9 110.182 1263.77 110.805C1260.63 111.428 1257.39 111.108 1254.43 109.886C1251.48 108.663 1248.96 106.593 1247.18 103.936C1245.41 101.28 1244.46 98.1565 1244.46 94.9616C1244.46 90.6774 1246.16 86.5686 1249.19 83.5392C1252.22 80.5097 1256.33 78.8078 1260.62 78.8078ZM1260.62 73.4232C1256.36 73.4232 1252.19 74.6864 1248.65 77.0531C1245.11 79.4198 1242.35 82.7836 1240.72 86.7192C1239.09 90.6549 1238.66 94.9855 1239.49 99.1636C1240.32 103.342 1242.37 107.179 1245.39 110.192C1248.4 113.204 1252.24 115.255 1256.41 116.086C1260.59 116.917 1264.92 116.491 1268.86 114.861C1272.79 113.23 1276.16 110.47 1278.52 106.928C1280.89 103.386 1282.15 99.2215 1282.15 94.9616C1282.15 89.2493 1279.88 83.7709 1275.85 79.7317C1271.81 75.6924 1266.33 73.4232 1260.62 73.4232Z" fill="white"/>
<path d="M1274.08 46.4999H1220.23C1218.8 46.4999 1217.43 47.0672 1216.42 48.0771C1215.41 49.0869 1214.85 50.4565 1214.85 51.8845V105.731C1214.85 107.159 1215.41 108.528 1216.42 109.538C1217.43 110.548 1218.8 111.115 1220.23 111.115H1231V105.731H1220.23V68.0383H1279.46V51.8845C1279.46 50.4565 1278.89 49.0869 1277.88 48.0771C1276.87 47.0672 1275.5 46.4999 1274.08 46.4999ZM1220.23 62.6537V51.8845H1274.08V62.6537H1220.23Z" fill="white"/>
<path d="M1255.23 86.8848V103.039L1268.69 94.9617L1255.23 86.8848Z" fill="white"/>
</svg>
