<svg width="1363" height="163" viewBox="0 0 1363 163" fill="none" xmlns="http://www.w3.org/2000/svg">
<path d="M0 15C0 6.71573 6.71573 0 15 0H37V163H15C6.71573 163 0 156.284 0 148V15Z" fill="#2FD671"/>
<rect width="1097" height="163" transform="translate(37)" fill="#F0F0F0"/>
<path d="M101.906 53.9219L94.3945 51.2383V48.0859L104.602 52.375V54.6367L101.906 53.9219ZM94.3945 56.1719L101.918 53.4297L104.602 52.7852V55.0352L94.3945 59.3242V56.1719ZM116.25 48.3203V61H112.863V48.3203H116.25ZM112.652 45.0156C112.652 44.5234 112.824 44.1172 113.168 43.7969C113.512 43.4766 113.973 43.3164 114.551 43.3164C115.121 43.3164 115.578 43.4766 115.922 43.7969C116.273 44.1172 116.449 44.5234 116.449 45.0156C116.449 45.5078 116.273 45.9141 115.922 46.2344C115.578 46.5547 115.121 46.7148 114.551 46.7148C113.973 46.7148 113.512 46.5547 113.168 46.2344C112.824 45.9141 112.652 45.5078 112.652 45.0156ZM129.141 55.3398H132.645C132.574 56.4883 132.258 57.5078 131.695 58.3984C131.141 59.2891 130.363 59.9844 129.363 60.4844C128.371 60.9844 127.176 61.2344 125.777 61.2344C124.684 61.2344 123.703 61.0469 122.836 60.6719C121.969 60.2891 121.227 59.7422 120.609 59.0312C120 58.3203 119.535 57.4609 119.215 56.4531C118.895 55.4453 118.734 54.3164 118.734 53.0664V51.8828C118.734 50.6328 118.898 49.5039 119.227 48.4961C119.562 47.4805 120.039 46.6172 120.656 45.9062C121.281 45.1953 122.027 44.6484 122.895 44.2656C123.762 43.8828 124.73 43.6914 125.801 43.6914C127.223 43.6914 128.422 43.9492 129.398 44.4648C130.383 44.9805 131.145 45.6914 131.684 46.5977C132.23 47.5039 132.559 48.5352 132.668 49.6914H129.152C129.113 49.0039 128.977 48.4219 128.742 47.9453C128.508 47.4609 128.152 47.0977 127.676 46.8555C127.207 46.6055 126.582 46.4805 125.801 46.4805C125.215 46.4805 124.703 46.5898 124.266 46.8086C123.828 47.0273 123.461 47.3594 123.164 47.8047C122.867 48.25 122.645 48.8125 122.496 49.4922C122.355 50.1641 122.285 50.9531 122.285 51.8594V53.0664C122.285 53.9492 122.352 54.7266 122.484 55.3984C122.617 56.0625 122.82 56.625 123.094 57.0859C123.375 57.5391 123.734 57.8828 124.172 58.1172C124.617 58.3438 125.152 58.457 125.777 58.457C126.512 58.457 127.117 58.3398 127.594 58.1055C128.07 57.8711 128.434 57.5234 128.684 57.0625C128.941 56.6016 129.094 56.0273 129.141 55.3398ZM138.035 43V61H134.66V43H138.035ZM137.555 54.2148H136.629C136.637 53.332 136.754 52.5195 136.98 51.7773C137.207 51.0273 137.531 50.3789 137.953 49.832C138.375 49.2773 138.879 48.8477 139.465 48.543C140.059 48.2383 140.715 48.0859 141.434 48.0859C142.059 48.0859 142.625 48.1758 143.133 48.3555C143.648 48.5273 144.09 48.8086 144.457 49.1992C144.832 49.582 145.121 50.0859 145.324 50.7109C145.527 51.3359 145.629 52.0938 145.629 52.9844V61H142.23V52.9609C142.23 52.3984 142.148 51.957 141.984 51.6367C141.828 51.3086 141.598 51.0781 141.293 50.9453C140.996 50.8047 140.629 50.7344 140.191 50.7344C139.707 50.7344 139.293 50.8242 138.949 51.0039C138.613 51.1836 138.344 51.4336 138.141 51.7539C137.938 52.0664 137.789 52.4336 137.695 52.8555C137.602 53.2773 137.555 53.7305 137.555 54.2148ZM155.039 58.1406V52.4922C155.039 52.0859 154.973 51.7383 154.84 51.4492C154.707 51.1523 154.5 50.9219 154.219 50.7578C153.945 50.5938 153.59 50.5117 153.152 50.5117C152.777 50.5117 152.453 50.5781 152.18 50.7109C151.906 50.8359 151.695 51.0195 151.547 51.2617C151.398 51.4961 151.324 51.7734 151.324 52.0938H147.949C147.949 51.5547 148.074 51.043 148.324 50.5586C148.574 50.0742 148.938 49.6484 149.414 49.2812C149.891 48.9062 150.457 48.6133 151.113 48.4023C151.777 48.1914 152.52 48.0859 153.34 48.0859C154.324 48.0859 155.199 48.25 155.965 48.5781C156.73 48.9062 157.332 49.3984 157.77 50.0547C158.215 50.7109 158.438 51.5312 158.438 52.5156V57.9414C158.438 58.6367 158.48 59.207 158.566 59.6523C158.652 60.0898 158.777 60.4727 158.941 60.8008V61H155.531C155.367 60.6562 155.242 60.2266 155.156 59.7109C155.078 59.1875 155.039 58.6641 155.039 58.1406ZM155.484 53.2773L155.508 55.1875H153.621C153.176 55.1875 152.789 55.2383 152.461 55.3398C152.133 55.4414 151.863 55.5859 151.652 55.7734C151.441 55.9531 151.285 56.1641 151.184 56.4062C151.09 56.6484 151.043 56.9141 151.043 57.2031C151.043 57.4922 151.109 57.7539 151.242 57.9883C151.375 58.2148 151.566 58.3945 151.816 58.5273C152.066 58.6523 152.359 58.7148 152.695 58.7148C153.203 58.7148 153.645 58.6133 154.02 58.4102C154.395 58.207 154.684 57.957 154.887 57.6602C155.098 57.3633 155.207 57.082 155.215 56.8164L156.105 58.2461C155.98 58.5664 155.809 58.8984 155.59 59.2422C155.379 59.5859 155.109 59.9102 154.781 60.2148C154.453 60.5117 154.059 60.7578 153.598 60.9531C153.137 61.1406 152.59 61.2344 151.957 61.2344C151.152 61.2344 150.422 61.0742 149.766 60.7539C149.117 60.4258 148.602 59.9766 148.219 59.4062C147.844 58.8281 147.656 58.1719 147.656 57.4375C147.656 56.7734 147.781 56.1836 148.031 55.668C148.281 55.1523 148.648 54.7188 149.133 54.3672C149.625 54.0078 150.238 53.7383 150.973 53.5586C151.707 53.3711 152.559 53.2773 153.527 53.2773H155.484ZM164.602 43V61H161.215V43H164.602ZM170.953 43V61H167.566V43H170.953ZM179.578 61.2344C178.594 61.2344 177.711 61.0781 176.93 60.7656C176.148 60.4453 175.484 60.0039 174.938 59.4414C174.398 58.8789 173.984 58.2266 173.695 57.4844C173.406 56.7344 173.262 55.9375 173.262 55.0938V54.625C173.262 53.6641 173.398 52.7852 173.672 51.9883C173.945 51.1914 174.336 50.5 174.844 49.9141C175.359 49.3281 175.984 48.8789 176.719 48.5664C177.453 48.2461 178.281 48.0859 179.203 48.0859C180.102 48.0859 180.898 48.2344 181.594 48.5312C182.289 48.8281 182.871 49.25 183.34 49.7969C183.816 50.3438 184.176 51 184.418 51.7656C184.66 52.5234 184.781 53.3672 184.781 54.2969V55.7031H174.703V53.4531H181.465V53.1953C181.465 52.7266 181.379 52.3086 181.207 51.9414C181.043 51.5664 180.793 51.2695 180.457 51.0508C180.121 50.832 179.691 50.7227 179.168 50.7227C178.723 50.7227 178.34 50.8203 178.02 51.0156C177.699 51.2109 177.438 51.4844 177.234 51.8359C177.039 52.1875 176.891 52.6016 176.789 53.0781C176.695 53.5469 176.648 54.0625 176.648 54.625V55.0938C176.648 55.6016 176.719 56.0703 176.859 56.5C177.008 56.9297 177.215 57.3008 177.48 57.6133C177.754 57.9258 178.082 58.168 178.465 58.3398C178.855 58.5117 179.297 58.5977 179.789 58.5977C180.398 58.5977 180.965 58.4805 181.488 58.2461C182.02 58.0039 182.477 57.6406 182.859 57.1562L184.5 58.9375C184.234 59.3203 183.871 59.6875 183.41 60.0391C182.957 60.3906 182.41 60.6797 181.77 60.9062C181.129 61.125 180.398 61.2344 179.578 61.2344ZM190.008 51.0273V61H186.633V48.3203H189.797L190.008 51.0273ZM189.516 54.2148H188.602C188.602 53.2773 188.723 52.4336 188.965 51.6836C189.207 50.9258 189.547 50.2812 189.984 49.75C190.422 49.2109 190.941 48.8008 191.543 48.5195C192.152 48.2305 192.832 48.0859 193.582 48.0859C194.176 48.0859 194.719 48.1719 195.211 48.3438C195.703 48.5156 196.125 48.7891 196.477 49.1641C196.836 49.5391 197.109 50.0352 197.297 50.6523C197.492 51.2695 197.59 52.0234 197.59 52.9141V61H194.191V52.9023C194.191 52.3398 194.113 51.9023 193.957 51.5898C193.801 51.2773 193.57 51.0586 193.266 50.9336C192.969 50.8008 192.602 50.7344 192.164 50.7344C191.711 50.7344 191.316 50.8242 190.98 51.0039C190.652 51.1836 190.379 51.4336 190.16 51.7539C189.949 52.0664 189.789 52.4336 189.68 52.8555C189.57 53.2773 189.516 53.7305 189.516 54.2148ZM208.184 48.3203H211.242V60.5781C211.242 61.7344 210.984 62.7148 210.469 63.5195C209.961 64.332 209.25 64.9453 208.336 65.3594C207.422 65.7812 206.359 65.9922 205.148 65.9922C204.617 65.9922 204.055 65.9219 203.461 65.7812C202.875 65.6406 202.312 65.4219 201.773 65.125C201.242 64.8281 200.797 64.4531 200.438 64L201.926 62.0078C202.316 62.4609 202.77 62.8125 203.285 63.0625C203.801 63.3203 204.371 63.4492 204.996 63.4492C205.605 63.4492 206.121 63.3359 206.543 63.1094C206.965 62.8906 207.289 62.5664 207.516 62.1367C207.742 61.7148 207.855 61.2031 207.855 60.6016V51.25L208.184 48.3203ZM199.652 54.8125V54.5664C199.652 53.5977 199.77 52.7188 200.004 51.9297C200.246 51.1328 200.586 50.4492 201.023 49.8789C201.469 49.3086 202.008 48.8672 202.641 48.5547C203.273 48.2422 203.988 48.0859 204.785 48.0859C205.629 48.0859 206.336 48.2422 206.906 48.5547C207.477 48.8672 207.945 49.3125 208.312 49.8906C208.68 50.4609 208.965 51.1367 209.168 51.918C209.379 52.6914 209.543 53.5391 209.66 54.4609V55C209.543 55.8828 209.367 56.7031 209.133 57.4609C208.898 58.2188 208.59 58.8828 208.207 59.4531C207.824 60.0156 207.348 60.4531 206.777 60.7656C206.215 61.0781 205.543 61.2344 204.762 61.2344C203.98 61.2344 203.273 61.0742 202.641 60.7539C202.016 60.4336 201.48 59.9844 201.035 59.4062C200.59 58.8281 200.246 58.1484 200.004 57.3672C199.77 56.5859 199.652 55.7344 199.652 54.8125ZM203.027 54.5664V54.8125C203.027 55.3359 203.078 55.8242 203.18 56.2773C203.281 56.7305 203.438 57.1328 203.648 57.4844C203.867 57.8281 204.137 58.0977 204.457 58.293C204.785 58.4805 205.172 58.5742 205.617 58.5742C206.234 58.5742 206.738 58.4453 207.129 58.1875C207.52 57.9219 207.812 57.5586 208.008 57.0977C208.203 56.6367 208.316 56.1055 208.348 55.5039V53.9688C208.332 53.4766 208.266 53.0352 208.148 52.6445C208.031 52.2461 207.867 51.9062 207.656 51.625C207.445 51.3438 207.172 51.125 206.836 50.9688C206.5 50.8125 206.102 50.7344 205.641 50.7344C205.195 50.7344 204.809 50.8359 204.48 51.0391C204.16 51.2344 203.891 51.5039 203.672 51.8477C203.461 52.1914 203.301 52.5977 203.191 53.0664C203.082 53.5273 203.027 54.0273 203.027 54.5664ZM219.703 61.2344C218.719 61.2344 217.836 61.0781 217.055 60.7656C216.273 60.4453 215.609 60.0039 215.062 59.4414C214.523 58.8789 214.109 58.2266 213.82 57.4844C213.531 56.7344 213.387 55.9375 213.387 55.0938V54.625C213.387 53.6641 213.523 52.7852 213.797 51.9883C214.07 51.1914 214.461 50.5 214.969 49.9141C215.484 49.3281 216.109 48.8789 216.844 48.5664C217.578 48.2461 218.406 48.0859 219.328 48.0859C220.227 48.0859 221.023 48.2344 221.719 48.5312C222.414 48.8281 222.996 49.25 223.465 49.7969C223.941 50.3438 224.301 51 224.543 51.7656C224.785 52.5234 224.906 53.3672 224.906 54.2969V55.7031H214.828V53.4531H221.59V53.1953C221.59 52.7266 221.504 52.3086 221.332 51.9414C221.168 51.5664 220.918 51.2695 220.582 51.0508C220.246 50.832 219.816 50.7227 219.293 50.7227C218.848 50.7227 218.465 50.8203 218.145 51.0156C217.824 51.2109 217.562 51.4844 217.359 51.8359C217.164 52.1875 217.016 52.6016 216.914 53.0781C216.82 53.5469 216.773 54.0625 216.773 54.625V55.0938C216.773 55.6016 216.844 56.0703 216.984 56.5C217.133 56.9297 217.34 57.3008 217.605 57.6133C217.879 57.9258 218.207 58.168 218.59 58.3398C218.98 58.5117 219.422 58.5977 219.914 58.5977C220.523 58.5977 221.09 58.4805 221.613 58.2461C222.145 58.0039 222.602 57.6406 222.984 57.1562L224.625 58.9375C224.359 59.3203 223.996 59.6875 223.535 60.0391C223.082 60.3906 222.535 60.6797 221.895 60.9062C221.254 61.125 220.523 61.2344 219.703 61.2344ZM230.203 51.0859V61H226.828V48.3203H230.004L230.203 51.0859ZM234.023 48.2383L233.965 51.3672C233.801 51.3438 233.602 51.3242 233.367 51.3086C233.141 51.2852 232.934 51.2734 232.746 51.2734C232.27 51.2734 231.855 51.3359 231.504 51.4609C231.16 51.5781 230.871 51.7539 230.637 51.9883C230.41 52.2227 230.238 52.5078 230.121 52.8438C230.012 53.1797 229.949 53.5625 229.934 53.9922L229.254 53.7812C229.254 52.9609 229.336 52.207 229.5 51.5195C229.664 50.8242 229.902 50.2188 230.215 49.7031C230.535 49.1875 230.926 48.7891 231.387 48.5078C231.848 48.2266 232.375 48.0859 232.969 48.0859C233.156 48.0859 233.348 48.1016 233.543 48.1328C233.738 48.1562 233.898 48.1914 234.023 48.2383Z" fill="#888888"/>
<path d="M112.125 84.875V119H103.898V84.875H112.125ZM122.391 84.875V91.2266H93.8672V84.875H122.391ZM134.695 112.625V102.172C134.695 101.453 134.594 100.836 134.391 100.32C134.188 99.8047 133.867 99.4062 133.43 99.125C132.992 98.8281 132.406 98.6797 131.672 98.6797C131.078 98.6797 130.57 98.7812 130.148 98.9844C129.727 99.1875 129.406 99.4922 129.188 99.8984C128.969 100.305 128.859 100.82 128.859 101.445H120.961C120.961 100.273 121.219 99.1875 121.734 98.1875C122.266 97.1719 123.016 96.2891 123.984 95.5391C124.969 94.7891 126.141 94.2109 127.5 93.8047C128.875 93.3828 130.406 93.1719 132.094 93.1719C134.109 93.1719 135.906 93.5078 137.484 94.1797C139.078 94.8516 140.336 95.8594 141.258 97.2031C142.18 98.5312 142.641 100.203 142.641 102.219V112.602C142.641 114.258 142.734 115.516 142.922 116.375C143.109 117.219 143.375 117.961 143.719 118.602V119H135.797C135.422 118.219 135.141 117.266 134.953 116.141C134.781 115 134.695 113.828 134.695 112.625ZM135.656 103.508L135.703 107.727H132.211C131.477 107.727 130.852 107.828 130.336 108.031C129.836 108.234 129.43 108.516 129.117 108.875C128.82 109.219 128.602 109.609 128.461 110.047C128.336 110.484 128.273 110.945 128.273 111.43C128.273 111.898 128.383 112.32 128.602 112.695C128.836 113.055 129.148 113.336 129.539 113.539C129.93 113.742 130.367 113.844 130.852 113.844C131.727 113.844 132.469 113.68 133.078 113.352C133.703 113.008 134.18 112.594 134.508 112.109C134.836 111.625 135 111.172 135 110.75L136.734 113.984C136.422 114.609 136.062 115.242 135.656 115.883C135.266 116.523 134.773 117.117 134.18 117.664C133.602 118.195 132.891 118.633 132.047 118.977C131.203 119.305 130.18 119.469 128.977 119.469C127.414 119.469 125.977 119.148 124.664 118.508C123.367 117.867 122.328 116.977 121.547 115.836C120.766 114.68 120.375 113.352 120.375 111.852C120.375 110.539 120.609 109.367 121.078 108.336C121.562 107.305 122.289 106.43 123.258 105.711C124.227 104.992 125.461 104.445 126.961 104.07C128.461 103.695 130.227 103.508 132.258 103.508H135.656ZM147.094 83H154.992V112.766L154.172 119H147.094V83ZM170.555 106.039V106.531C170.555 108.453 170.359 110.203 169.969 111.781C169.578 113.359 168.977 114.727 168.164 115.883C167.352 117.023 166.328 117.906 165.094 118.531C163.859 119.156 162.398 119.469 160.711 119.469C159.18 119.469 157.867 119.141 156.773 118.484C155.68 117.812 154.766 116.891 154.031 115.719C153.297 114.531 152.703 113.164 152.25 111.617C151.797 110.055 151.438 108.383 151.172 106.602V106.016C151.438 104.25 151.797 102.594 152.25 101.047C152.703 99.4844 153.297 98.1172 154.031 96.9453C154.766 95.7578 155.672 94.8359 156.75 94.1797C157.844 93.5078 159.148 93.1719 160.664 93.1719C162.367 93.1719 163.836 93.4922 165.07 94.1328C166.32 94.7734 167.352 95.6719 168.164 96.8281C168.977 97.9844 169.578 99.3438 169.969 100.906C170.359 102.469 170.555 104.18 170.555 106.039ZM162.656 106.531V106.039C162.656 105.117 162.602 104.25 162.492 103.438C162.383 102.625 162.188 101.906 161.906 101.281C161.625 100.656 161.227 100.164 160.711 99.8047C160.195 99.4453 159.523 99.2656 158.695 99.2656C157.852 99.2656 157.141 99.4062 156.562 99.6875C156 99.9688 155.547 100.375 155.203 100.906C154.875 101.422 154.641 102.062 154.5 102.828C154.359 103.578 154.297 104.43 154.312 105.383V107.234C154.281 108.531 154.398 109.641 154.664 110.562C154.93 111.484 155.391 112.188 156.047 112.672C156.703 113.156 157.602 113.398 158.742 113.398C159.586 113.398 160.266 113.234 160.781 112.906C161.312 112.578 161.711 112.109 161.977 111.5C162.242 110.891 162.422 110.164 162.516 109.32C162.609 108.477 162.656 107.547 162.656 106.531ZM182.414 83V119H174.492V83H182.414ZM199.57 119.469C197.508 119.469 195.664 119.148 194.039 118.508C192.414 117.852 191.039 116.953 189.914 115.812C188.805 114.672 187.953 113.359 187.359 111.875C186.781 110.391 186.492 108.82 186.492 107.164V106.273C186.492 104.414 186.75 102.695 187.266 101.117C187.781 99.5234 188.547 98.1328 189.562 96.9453C190.578 95.7578 191.852 94.8359 193.383 94.1797C194.914 93.5078 196.695 93.1719 198.727 93.1719C200.523 93.1719 202.133 93.4609 203.555 94.0391C204.977 94.6172 206.18 95.4453 207.164 96.5234C208.164 97.6016 208.922 98.9062 209.438 100.438C209.969 101.969 210.234 103.688 210.234 105.594V108.805H189.516V103.859H202.523V103.25C202.539 102.406 202.391 101.688 202.078 101.094C201.781 100.5 201.344 100.047 200.766 99.7344C200.188 99.4219 199.484 99.2656 198.656 99.2656C197.797 99.2656 197.086 99.4531 196.523 99.8281C195.977 100.203 195.547 100.719 195.234 101.375C194.938 102.016 194.727 102.758 194.602 103.602C194.477 104.445 194.414 105.336 194.414 106.273V107.164C194.414 108.102 194.539 108.953 194.789 109.719C195.055 110.484 195.43 111.141 195.914 111.688C196.414 112.219 197.008 112.633 197.695 112.93C198.398 113.227 199.195 113.375 200.086 113.375C201.164 113.375 202.227 113.172 203.273 112.766C204.32 112.359 205.219 111.688 205.969 110.75L209.555 115.016C209.039 115.75 208.305 116.461 207.352 117.148C206.414 117.836 205.289 118.398 203.977 118.836C202.664 119.258 201.195 119.469 199.57 119.469ZM224.414 106.578V106.086C224.414 104.227 224.68 102.516 225.211 100.953C225.742 99.375 226.523 98.0078 227.555 96.8516C228.586 95.6953 229.859 94.7969 231.375 94.1562C232.891 93.5 234.641 93.1719 236.625 93.1719C238.625 93.1719 240.383 93.5 241.898 94.1562C243.43 94.7969 244.711 95.6953 245.742 96.8516C246.773 98.0078 247.555 99.375 248.086 100.953C248.617 102.516 248.883 104.227 248.883 106.086V106.578C248.883 108.422 248.617 110.133 248.086 111.711C247.555 113.273 246.773 114.641 245.742 115.812C244.711 116.969 243.438 117.867 241.922 118.508C240.406 119.148 238.656 119.469 236.672 119.469C234.688 119.469 232.93 119.148 231.398 118.508C229.867 117.867 228.586 116.969 227.555 115.812C226.523 114.641 225.742 113.273 225.211 111.711C224.68 110.133 224.414 108.422 224.414 106.578ZM232.312 106.086V106.578C232.312 107.531 232.383 108.422 232.523 109.25C232.664 110.078 232.898 110.805 233.227 111.43C233.555 112.039 234 112.516 234.562 112.859C235.125 113.203 235.828 113.375 236.672 113.375C237.5 113.375 238.188 113.203 238.734 112.859C239.297 112.516 239.742 112.039 240.07 111.43C240.398 110.805 240.633 110.078 240.773 109.25C240.914 108.422 240.984 107.531 240.984 106.578V106.086C240.984 105.164 240.914 104.297 240.773 103.484C240.633 102.656 240.398 101.93 240.07 101.305C239.742 100.664 239.297 100.164 238.734 99.8047C238.172 99.4453 237.469 99.2656 236.625 99.2656C235.797 99.2656 235.102 99.4453 234.539 99.8047C233.992 100.164 233.555 100.664 233.227 101.305C232.898 101.93 232.664 102.656 232.523 103.484C232.383 104.297 232.312 105.164 232.312 106.086ZM262.078 119H254.133V91.5781C254.133 89.6094 254.531 87.9531 255.328 86.6094C256.125 85.2656 257.25 84.25 258.703 83.5625C260.156 82.8594 261.875 82.5078 263.859 82.5078C264.547 82.5078 265.195 82.5547 265.805 82.6484C266.414 82.7422 267.008 82.8594 267.586 83L267.609 88.8125C267.328 88.7344 267.039 88.6797 266.742 88.6484C266.445 88.6172 266.078 88.6016 265.641 88.6016C264.875 88.6016 264.227 88.7188 263.695 88.9531C263.164 89.1719 262.758 89.5078 262.477 89.9609C262.211 90.3984 262.078 90.9375 262.078 91.5781V119ZM267 93.6406V99.125H250.477V93.6406H267ZM301.57 107.445H309.773C309.664 109.82 309.023 111.914 307.852 113.727C306.68 115.539 305.055 116.953 302.977 117.969C300.914 118.969 298.477 119.469 295.664 119.469C293.383 119.469 291.344 119.086 289.547 118.32C287.766 117.555 286.25 116.453 285 115.016C283.766 113.578 282.82 111.836 282.164 109.789C281.523 107.742 281.203 105.438 281.203 102.875V101.023C281.203 98.4609 281.539 96.1562 282.211 94.1094C282.898 92.0469 283.867 90.2969 285.117 88.8594C286.383 87.4062 287.898 86.2969 289.664 85.5312C291.43 84.7656 293.391 84.3828 295.547 84.3828C298.516 84.3828 301.023 84.9141 303.07 85.9766C305.117 87.0391 306.703 88.5 307.828 90.3594C308.953 92.2031 309.617 94.3047 309.82 96.6641H301.617C301.586 95.3828 301.367 94.3125 300.961 93.4531C300.555 92.5781 299.914 91.9219 299.039 91.4844C298.164 91.0469 297 90.8281 295.547 90.8281C294.531 90.8281 293.648 91.0156 292.898 91.3906C292.148 91.7656 291.523 92.3594 291.023 93.1719C290.523 93.9844 290.148 95.0391 289.898 96.3359C289.664 97.6172 289.547 99.1641 289.547 100.977V102.875C289.547 104.688 289.656 106.234 289.875 107.516C290.094 108.797 290.445 109.844 290.93 110.656C291.414 111.469 292.039 112.07 292.805 112.461C293.586 112.836 294.539 113.023 295.664 113.023C296.914 113.023 297.969 112.828 298.828 112.438C299.688 112.031 300.352 111.422 300.82 110.609C301.289 109.781 301.539 108.727 301.57 107.445ZM312.305 106.578V106.086C312.305 104.227 312.57 102.516 313.102 100.953C313.633 99.375 314.414 98.0078 315.445 96.8516C316.477 95.6953 317.75 94.7969 319.266 94.1562C320.781 93.5 322.531 93.1719 324.516 93.1719C326.516 93.1719 328.273 93.5 329.789 94.1562C331.32 94.7969 332.602 95.6953 333.633 96.8516C334.664 98.0078 335.445 99.375 335.977 100.953C336.508 102.516 336.773 104.227 336.773 106.086V106.578C336.773 108.422 336.508 110.133 335.977 111.711C335.445 113.273 334.664 114.641 333.633 115.812C332.602 116.969 331.328 117.867 329.812 118.508C328.297 119.148 326.547 119.469 324.562 119.469C322.578 119.469 320.82 119.148 319.289 118.508C317.758 117.867 316.477 116.969 315.445 115.812C314.414 114.641 313.633 113.273 313.102 111.711C312.57 110.133 312.305 108.422 312.305 106.578ZM320.203 106.086V106.578C320.203 107.531 320.273 108.422 320.414 109.25C320.555 110.078 320.789 110.805 321.117 111.43C321.445 112.039 321.891 112.516 322.453 112.859C323.016 113.203 323.719 113.375 324.562 113.375C325.391 113.375 326.078 113.203 326.625 112.859C327.188 112.516 327.633 112.039 327.961 111.43C328.289 110.805 328.523 110.078 328.664 109.25C328.805 108.422 328.875 107.531 328.875 106.578V106.086C328.875 105.164 328.805 104.297 328.664 103.484C328.523 102.656 328.289 101.93 327.961 101.305C327.633 100.664 327.188 100.164 326.625 99.8047C326.062 99.4453 325.359 99.2656 324.516 99.2656C323.688 99.2656 322.992 99.4453 322.43 99.8047C321.883 100.164 321.445 100.664 321.117 101.305C320.789 101.93 320.555 102.656 320.414 103.484C320.273 104.297 320.203 105.164 320.203 106.086ZM348.047 99.0547V119H340.148V93.6406H347.555L348.047 99.0547ZM347.109 105.453L345.258 105.5C345.258 103.562 345.492 101.836 345.961 100.32C346.43 98.7891 347.094 97.4922 347.953 96.4297C348.812 95.3672 349.836 94.5625 351.023 94.0156C352.227 93.4531 353.562 93.1719 355.031 93.1719C356.203 93.1719 357.273 93.3438 358.242 93.6875C359.227 94.0312 360.07 94.5859 360.773 95.3516C361.492 96.1172 362.039 97.1328 362.414 98.3984C362.805 99.6484 363 101.195 363 103.039V119H355.055V103.016C355.055 102 354.914 101.227 354.633 100.695C354.352 100.148 353.945 99.7734 353.414 99.5703C352.883 99.3672 352.234 99.2656 351.469 99.2656C350.656 99.2656 349.969 99.4219 349.406 99.7344C348.844 100.047 348.391 100.484 348.047 101.047C347.719 101.594 347.477 102.242 347.32 102.992C347.18 103.742 347.109 104.562 347.109 105.453ZM380.742 93.6406V99.125H365.461V93.6406H380.742ZM368.672 87.3359H376.57V110.727C376.57 111.398 376.648 111.922 376.805 112.297C376.961 112.656 377.227 112.914 377.602 113.07C377.992 113.211 378.508 113.281 379.148 113.281C379.602 113.281 379.977 113.273 380.273 113.258C380.57 113.227 380.852 113.188 381.117 113.141V118.789C380.445 119.008 379.742 119.172 379.008 119.281C378.273 119.406 377.492 119.469 376.664 119.469C374.977 119.469 373.531 119.203 372.328 118.672C371.141 118.141 370.234 117.305 369.609 116.164C368.984 115.023 368.672 113.539 368.672 111.711V87.3359ZM396.164 119.469C394.102 119.469 392.258 119.148 390.633 118.508C389.008 117.852 387.633 116.953 386.508 115.812C385.398 114.672 384.547 113.359 383.953 111.875C383.375 110.391 383.086 108.82 383.086 107.164V106.273C383.086 104.414 383.344 102.695 383.859 101.117C384.375 99.5234 385.141 98.1328 386.156 96.9453C387.172 95.7578 388.445 94.8359 389.977 94.1797C391.508 93.5078 393.289 93.1719 395.32 93.1719C397.117 93.1719 398.727 93.4609 400.148 94.0391C401.57 94.6172 402.773 95.4453 403.758 96.5234C404.758 97.6016 405.516 98.9062 406.031 100.438C406.562 101.969 406.828 103.688 406.828 105.594V108.805H386.109V103.859H399.117V103.25C399.133 102.406 398.984 101.688 398.672 101.094C398.375 100.5 397.938 100.047 397.359 99.7344C396.781 99.4219 396.078 99.2656 395.25 99.2656C394.391 99.2656 393.68 99.4531 393.117 99.8281C392.57 100.203 392.141 100.719 391.828 101.375C391.531 102.016 391.32 102.758 391.195 103.602C391.07 104.445 391.008 105.336 391.008 106.273V107.164C391.008 108.102 391.133 108.953 391.383 109.719C391.648 110.484 392.023 111.141 392.508 111.688C393.008 112.219 393.602 112.633 394.289 112.93C394.992 113.227 395.789 113.375 396.68 113.375C397.758 113.375 398.82 113.172 399.867 112.766C400.914 112.359 401.812 111.688 402.562 110.75L406.148 115.016C405.633 115.75 404.898 116.461 403.945 117.148C403.008 117.836 401.883 118.398 400.57 118.836C399.258 119.258 397.789 119.469 396.164 119.469ZM417.797 99.0547V119H409.898V93.6406H417.305L417.797 99.0547ZM416.859 105.453L415.008 105.5C415.008 103.562 415.242 101.836 415.711 100.32C416.18 98.7891 416.844 97.4922 417.703 96.4297C418.562 95.3672 419.586 94.5625 420.773 94.0156C421.977 93.4531 423.312 93.1719 424.781 93.1719C425.953 93.1719 427.023 93.3438 427.992 93.6875C428.977 94.0312 429.82 94.5859 430.523 95.3516C431.242 96.1172 431.789 97.1328 432.164 98.3984C432.555 99.6484 432.75 101.195 432.75 103.039V119H424.805V103.016C424.805 102 424.664 101.227 424.383 100.695C424.102 100.148 423.695 99.7734 423.164 99.5703C422.633 99.3672 421.984 99.2656 421.219 99.2656C420.406 99.2656 419.719 99.4219 419.156 99.7344C418.594 100.047 418.141 100.484 417.797 101.047C417.469 101.594 417.227 102.242 417.07 102.992C416.93 103.742 416.859 104.562 416.859 105.453ZM450.492 93.6406V99.125H435.211V93.6406H450.492ZM438.422 87.3359H446.32V110.727C446.32 111.398 446.398 111.922 446.555 112.297C446.711 112.656 446.977 112.914 447.352 113.07C447.742 113.211 448.258 113.281 448.898 113.281C449.352 113.281 449.727 113.273 450.023 113.258C450.32 113.227 450.602 113.188 450.867 113.141V118.789C450.195 119.008 449.492 119.172 448.758 119.281C448.023 119.406 447.242 119.469 446.414 119.469C444.727 119.469 443.281 119.203 442.078 118.672C440.891 118.141 439.984 117.305 439.359 116.164C438.734 115.023 438.422 113.539 438.422 111.711V87.3359ZM466.922 111.875C466.922 111.438 466.773 111.062 466.477 110.75C466.195 110.422 465.695 110.125 464.977 109.859C464.258 109.578 463.25 109.297 461.953 109.016C460.719 108.75 459.555 108.398 458.461 107.961C457.383 107.523 456.438 106.992 455.625 106.367C454.812 105.742 454.172 105 453.703 104.141C453.25 103.281 453.023 102.297 453.023 101.188C453.023 100.109 453.25 99.0938 453.703 98.1406C454.172 97.1719 454.852 96.3203 455.742 95.5859C456.648 94.8359 457.75 94.25 459.047 93.8281C460.344 93.3906 461.82 93.1719 463.477 93.1719C465.758 93.1719 467.727 93.5234 469.383 94.2266C471.039 94.9141 472.312 95.8828 473.203 97.1328C474.109 98.3672 474.562 99.7969 474.562 101.422H466.664C466.664 100.781 466.555 100.234 466.336 99.7812C466.133 99.3281 465.797 98.9844 465.328 98.75C464.859 98.5 464.234 98.375 463.453 98.375C462.906 98.375 462.406 98.4766 461.953 98.6797C461.516 98.8828 461.164 99.1641 460.898 99.5234C460.633 99.8828 460.5 100.305 460.5 100.789C460.5 101.133 460.578 101.445 460.734 101.727C460.906 101.992 461.164 102.242 461.508 102.477C461.852 102.695 462.289 102.898 462.82 103.086C463.352 103.258 463.992 103.414 464.742 103.555C466.445 103.867 468.039 104.312 469.523 104.891C471.008 105.469 472.211 106.289 473.133 107.352C474.07 108.414 474.539 109.844 474.539 111.641C474.539 112.766 474.281 113.805 473.766 114.758C473.25 115.695 472.508 116.523 471.539 117.242C470.57 117.945 469.406 118.492 468.047 118.883C466.688 119.273 465.156 119.469 463.453 119.469C461.031 119.469 458.984 119.039 457.312 118.18C455.641 117.305 454.375 116.211 453.516 114.898C452.672 113.57 452.25 112.227 452.25 110.867H459.609C459.641 111.648 459.828 112.289 460.172 112.789C460.531 113.289 461.008 113.656 461.602 113.891C462.195 114.125 462.883 114.242 463.664 114.242C464.383 114.242 464.977 114.141 465.445 113.938C465.93 113.734 466.297 113.461 466.547 113.117C466.797 112.758 466.922 112.344 466.922 111.875Z" fill="black"/>
<path d="M1134 0H1348C1356.28 0 1363 6.71573 1363 15V148C1363 156.284 1356.28 163 1348 163H1134V0Z" fill="#2FD671"/>
<path d="M1218.5 71.5H1278.5M1218.5 91.5H1278.5M1235.17 51.5V111.5M1229.17 111.5H1267.83C1271.57 111.5 1273.43 111.5 1274.86 110.628C1276.11 109.861 1277.13 108.637 1277.77 107.132C1278.5 105.421 1278.5 103.18 1278.5 98.7V64.3C1278.5 59.8196 1278.5 57.5794 1277.77 55.8681C1277.13 54.3628 1276.11 53.1389 1274.86 52.372C1273.43 51.5 1271.57 51.5 1267.83 51.5H1229.17C1225.43 51.5 1223.57 51.5 1222.14 52.372C1220.89 53.1389 1219.87 54.3628 1219.23 55.8681C1218.5 57.5794 1218.5 59.8196 1218.5 64.3V98.7C1218.5 103.18 1218.5 105.421 1219.23 107.132C1219.87 108.637 1220.89 109.861 1222.14 110.628C1223.57 111.5 1225.43 111.5 1229.17 111.5Z" stroke="white" stroke-width="5"/>
</svg>
