<svg width="1363" height="163" viewBox="0 0 1363 163" fill="none" xmlns="http://www.w3.org/2000/svg">
<path d="M0 15C0 6.71573 6.71573 0 15 0H37V163H15C6.71573 163 0 156.284 0 148V15Z" fill="#2FD671"/>
<rect width="1097" height="163" transform="translate(37)" fill="#F0F0F0"/>
<path d="M101.906 53.9219L94.3945 51.2383V48.0859L104.602 52.375V54.6367L101.906 53.9219ZM94.3945 56.1719L101.918 53.4297L104.602 52.7852V55.0352L94.3945 59.3242V56.1719ZM116.25 48.3203V61H112.863V48.3203H116.25ZM112.652 45.0156C112.652 44.5234 112.824 44.1172 113.168 43.7969C113.512 43.4766 113.973 43.3164 114.551 43.3164C115.121 43.3164 115.578 43.4766 115.922 43.7969C116.273 44.1172 116.449 44.5234 116.449 45.0156C116.449 45.5078 116.273 45.9141 115.922 46.2344C115.578 46.5547 115.121 46.7148 114.551 46.7148C113.973 46.7148 113.512 46.5547 113.168 46.2344C112.824 45.9141 112.652 45.5078 112.652 45.0156ZM129.141 55.3398H132.645C132.574 56.4883 132.258 57.5078 131.695 58.3984C131.141 59.2891 130.363 59.9844 129.363 60.4844C128.371 60.9844 127.176 61.2344 125.777 61.2344C124.684 61.2344 123.703 61.0469 122.836 60.6719C121.969 60.2891 121.227 59.7422 120.609 59.0312C120 58.3203 119.535 57.4609 119.215 56.4531C118.895 55.4453 118.734 54.3164 118.734 53.0664V51.8828C118.734 50.6328 118.898 49.5039 119.227 48.4961C119.562 47.4805 120.039 46.6172 120.656 45.9062C121.281 45.1953 122.027 44.6484 122.895 44.2656C123.762 43.8828 124.73 43.6914 125.801 43.6914C127.223 43.6914 128.422 43.9492 129.398 44.4648C130.383 44.9805 131.145 45.6914 131.684 46.5977C132.23 47.5039 132.559 48.5352 132.668 49.6914H129.152C129.113 49.0039 128.977 48.4219 128.742 47.9453C128.508 47.4609 128.152 47.0977 127.676 46.8555C127.207 46.6055 126.582 46.4805 125.801 46.4805C125.215 46.4805 124.703 46.5898 124.266 46.8086C123.828 47.0273 123.461 47.3594 123.164 47.8047C122.867 48.25 122.645 48.8125 122.496 49.4922C122.355 50.1641 122.285 50.9531 122.285 51.8594V53.0664C122.285 53.9492 122.352 54.7266 122.484 55.3984C122.617 56.0625 122.82 56.625 123.094 57.0859C123.375 57.5391 123.734 57.8828 124.172 58.1172C124.617 58.3438 125.152 58.457 125.777 58.457C126.512 58.457 127.117 58.3398 127.594 58.1055C128.07 57.8711 128.434 57.5234 128.684 57.0625C128.941 56.6016 129.094 56.0273 129.141 55.3398ZM138.035 43V61H134.66V43H138.035ZM137.555 54.2148H136.629C136.637 53.332 136.754 52.5195 136.98 51.7773C137.207 51.0273 137.531 50.3789 137.953 49.832C138.375 49.2773 138.879 48.8477 139.465 48.543C140.059 48.2383 140.715 48.0859 141.434 48.0859C142.059 48.0859 142.625 48.1758 143.133 48.3555C143.648 48.5273 144.09 48.8086 144.457 49.1992C144.832 49.582 145.121 50.0859 145.324 50.7109C145.527 51.3359 145.629 52.0938 145.629 52.9844V61H142.23V52.9609C142.23 52.3984 142.148 51.957 141.984 51.6367C141.828 51.3086 141.598 51.0781 141.293 50.9453C140.996 50.8047 140.629 50.7344 140.191 50.7344C139.707 50.7344 139.293 50.8242 138.949 51.0039C138.613 51.1836 138.344 51.4336 138.141 51.7539C137.938 52.0664 137.789 52.4336 137.695 52.8555C137.602 53.2773 137.555 53.7305 137.555 54.2148ZM155.039 58.1406V52.4922C155.039 52.0859 154.973 51.7383 154.84 51.4492C154.707 51.1523 154.5 50.9219 154.219 50.7578C153.945 50.5938 153.59 50.5117 153.152 50.5117C152.777 50.5117 152.453 50.5781 152.18 50.7109C151.906 50.8359 151.695 51.0195 151.547 51.2617C151.398 51.4961 151.324 51.7734 151.324 52.0938H147.949C147.949 51.5547 148.074 51.043 148.324 50.5586C148.574 50.0742 148.938 49.6484 149.414 49.2812C149.891 48.9062 150.457 48.6133 151.113 48.4023C151.777 48.1914 152.52 48.0859 153.34 48.0859C154.324 48.0859 155.199 48.25 155.965 48.5781C156.73 48.9062 157.332 49.3984 157.77 50.0547C158.215 50.7109 158.438 51.5312 158.438 52.5156V57.9414C158.438 58.6367 158.48 59.207 158.566 59.6523C158.652 60.0898 158.777 60.4727 158.941 60.8008V61H155.531C155.367 60.6562 155.242 60.2266 155.156 59.7109C155.078 59.1875 155.039 58.6641 155.039 58.1406ZM155.484 53.2773L155.508 55.1875H153.621C153.176 55.1875 152.789 55.2383 152.461 55.3398C152.133 55.4414 151.863 55.5859 151.652 55.7734C151.441 55.9531 151.285 56.1641 151.184 56.4062C151.09 56.6484 151.043 56.9141 151.043 57.2031C151.043 57.4922 151.109 57.7539 151.242 57.9883C151.375 58.2148 151.566 58.3945 151.816 58.5273C152.066 58.6523 152.359 58.7148 152.695 58.7148C153.203 58.7148 153.645 58.6133 154.02 58.4102C154.395 58.207 154.684 57.957 154.887 57.6602C155.098 57.3633 155.207 57.082 155.215 56.8164L156.105 58.2461C155.98 58.5664 155.809 58.8984 155.59 59.2422C155.379 59.5859 155.109 59.9102 154.781 60.2148C154.453 60.5117 154.059 60.7578 153.598 60.9531C153.137 61.1406 152.59 61.2344 151.957 61.2344C151.152 61.2344 150.422 61.0742 149.766 60.7539C149.117 60.4258 148.602 59.9766 148.219 59.4062C147.844 58.8281 147.656 58.1719 147.656 57.4375C147.656 56.7734 147.781 56.1836 148.031 55.668C148.281 55.1523 148.648 54.7188 149.133 54.3672C149.625 54.0078 150.238 53.7383 150.973 53.5586C151.707 53.3711 152.559 53.2773 153.527 53.2773H155.484ZM164.602 43V61H161.215V43H164.602ZM170.953 43V61H167.566V43H170.953ZM179.578 61.2344C178.594 61.2344 177.711 61.0781 176.93 60.7656C176.148 60.4453 175.484 60.0039 174.938 59.4414C174.398 58.8789 173.984 58.2266 173.695 57.4844C173.406 56.7344 173.262 55.9375 173.262 55.0938V54.625C173.262 53.6641 173.398 52.7852 173.672 51.9883C173.945 51.1914 174.336 50.5 174.844 49.9141C175.359 49.3281 175.984 48.8789 176.719 48.5664C177.453 48.2461 178.281 48.0859 179.203 48.0859C180.102 48.0859 180.898 48.2344 181.594 48.5312C182.289 48.8281 182.871 49.25 183.34 49.7969C183.816 50.3438 184.176 51 184.418 51.7656C184.66 52.5234 184.781 53.3672 184.781 54.2969V55.7031H174.703V53.4531H181.465V53.1953C181.465 52.7266 181.379 52.3086 181.207 51.9414C181.043 51.5664 180.793 51.2695 180.457 51.0508C180.121 50.832 179.691 50.7227 179.168 50.7227C178.723 50.7227 178.34 50.8203 178.02 51.0156C177.699 51.2109 177.438 51.4844 177.234 51.8359C177.039 52.1875 176.891 52.6016 176.789 53.0781C176.695 53.5469 176.648 54.0625 176.648 54.625V55.0938C176.648 55.6016 176.719 56.0703 176.859 56.5C177.008 56.9297 177.215 57.3008 177.48 57.6133C177.754 57.9258 178.082 58.168 178.465 58.3398C178.855 58.5117 179.297 58.5977 179.789 58.5977C180.398 58.5977 180.965 58.4805 181.488 58.2461C182.02 58.0039 182.477 57.6406 182.859 57.1562L184.5 58.9375C184.234 59.3203 183.871 59.6875 183.41 60.0391C182.957 60.3906 182.41 60.6797 181.77 60.9062C181.129 61.125 180.398 61.2344 179.578 61.2344ZM190.008 51.0273V61H186.633V48.3203H189.797L190.008 51.0273ZM189.516 54.2148H188.602C188.602 53.2773 188.723 52.4336 188.965 51.6836C189.207 50.9258 189.547 50.2812 189.984 49.75C190.422 49.2109 190.941 48.8008 191.543 48.5195C192.152 48.2305 192.832 48.0859 193.582 48.0859C194.176 48.0859 194.719 48.1719 195.211 48.3438C195.703 48.5156 196.125 48.7891 196.477 49.1641C196.836 49.5391 197.109 50.0352 197.297 50.6523C197.492 51.2695 197.59 52.0234 197.59 52.9141V61H194.191V52.9023C194.191 52.3398 194.113 51.9023 193.957 51.5898C193.801 51.2773 193.57 51.0586 193.266 50.9336C192.969 50.8008 192.602 50.7344 192.164 50.7344C191.711 50.7344 191.316 50.8242 190.98 51.0039C190.652 51.1836 190.379 51.4336 190.16 51.7539C189.949 52.0664 189.789 52.4336 189.68 52.8555C189.57 53.2773 189.516 53.7305 189.516 54.2148ZM208.184 48.3203H211.242V60.5781C211.242 61.7344 210.984 62.7148 210.469 63.5195C209.961 64.332 209.25 64.9453 208.336 65.3594C207.422 65.7812 206.359 65.9922 205.148 65.9922C204.617 65.9922 204.055 65.9219 203.461 65.7812C202.875 65.6406 202.312 65.4219 201.773 65.125C201.242 64.8281 200.797 64.4531 200.438 64L201.926 62.0078C202.316 62.4609 202.77 62.8125 203.285 63.0625C203.801 63.3203 204.371 63.4492 204.996 63.4492C205.605 63.4492 206.121 63.3359 206.543 63.1094C206.965 62.8906 207.289 62.5664 207.516 62.1367C207.742 61.7148 207.855 61.2031 207.855 60.6016V51.25L208.184 48.3203ZM199.652 54.8125V54.5664C199.652 53.5977 199.77 52.7188 200.004 51.9297C200.246 51.1328 200.586 50.4492 201.023 49.8789C201.469 49.3086 202.008 48.8672 202.641 48.5547C203.273 48.2422 203.988 48.0859 204.785 48.0859C205.629 48.0859 206.336 48.2422 206.906 48.5547C207.477 48.8672 207.945 49.3125 208.312 49.8906C208.68 50.4609 208.965 51.1367 209.168 51.918C209.379 52.6914 209.543 53.5391 209.66 54.4609V55C209.543 55.8828 209.367 56.7031 209.133 57.4609C208.898 58.2188 208.59 58.8828 208.207 59.4531C207.824 60.0156 207.348 60.4531 206.777 60.7656C206.215 61.0781 205.543 61.2344 204.762 61.2344C203.98 61.2344 203.273 61.0742 202.641 60.7539C202.016 60.4336 201.48 59.9844 201.035 59.4062C200.59 58.8281 200.246 58.1484 200.004 57.3672C199.77 56.5859 199.652 55.7344 199.652 54.8125ZM203.027 54.5664V54.8125C203.027 55.3359 203.078 55.8242 203.18 56.2773C203.281 56.7305 203.438 57.1328 203.648 57.4844C203.867 57.8281 204.137 58.0977 204.457 58.293C204.785 58.4805 205.172 58.5742 205.617 58.5742C206.234 58.5742 206.738 58.4453 207.129 58.1875C207.52 57.9219 207.812 57.5586 208.008 57.0977C208.203 56.6367 208.316 56.1055 208.348 55.5039V53.9688C208.332 53.4766 208.266 53.0352 208.148 52.6445C208.031 52.2461 207.867 51.9062 207.656 51.625C207.445 51.3438 207.172 51.125 206.836 50.9688C206.5 50.8125 206.102 50.7344 205.641 50.7344C205.195 50.7344 204.809 50.8359 204.48 51.0391C204.16 51.2344 203.891 51.5039 203.672 51.8477C203.461 52.1914 203.301 52.5977 203.191 53.0664C203.082 53.5273 203.027 54.0273 203.027 54.5664ZM219.703 61.2344C218.719 61.2344 217.836 61.0781 217.055 60.7656C216.273 60.4453 215.609 60.0039 215.062 59.4414C214.523 58.8789 214.109 58.2266 213.82 57.4844C213.531 56.7344 213.387 55.9375 213.387 55.0938V54.625C213.387 53.6641 213.523 52.7852 213.797 51.9883C214.07 51.1914 214.461 50.5 214.969 49.9141C215.484 49.3281 216.109 48.8789 216.844 48.5664C217.578 48.2461 218.406 48.0859 219.328 48.0859C220.227 48.0859 221.023 48.2344 221.719 48.5312C222.414 48.8281 222.996 49.25 223.465 49.7969C223.941 50.3438 224.301 51 224.543 51.7656C224.785 52.5234 224.906 53.3672 224.906 54.2969V55.7031H214.828V53.4531H221.59V53.1953C221.59 52.7266 221.504 52.3086 221.332 51.9414C221.168 51.5664 220.918 51.2695 220.582 51.0508C220.246 50.832 219.816 50.7227 219.293 50.7227C218.848 50.7227 218.465 50.8203 218.145 51.0156C217.824 51.2109 217.562 51.4844 217.359 51.8359C217.164 52.1875 217.016 52.6016 216.914 53.0781C216.82 53.5469 216.773 54.0625 216.773 54.625V55.0938C216.773 55.6016 216.844 56.0703 216.984 56.5C217.133 56.9297 217.34 57.3008 217.605 57.6133C217.879 57.9258 218.207 58.168 218.59 58.3398C218.98 58.5117 219.422 58.5977 219.914 58.5977C220.523 58.5977 221.09 58.4805 221.613 58.2461C222.145 58.0039 222.602 57.6406 222.984 57.1562L224.625 58.9375C224.359 59.3203 223.996 59.6875 223.535 60.0391C223.082 60.3906 222.535 60.6797 221.895 60.9062C221.254 61.125 220.523 61.2344 219.703 61.2344ZM230.203 51.0859V61H226.828V48.3203H230.004L230.203 51.0859ZM234.023 48.2383L233.965 51.3672C233.801 51.3438 233.602 51.3242 233.367 51.3086C233.141 51.2852 232.934 51.2734 232.746 51.2734C232.27 51.2734 231.855 51.3359 231.504 51.4609C231.16 51.5781 230.871 51.7539 230.637 51.9883C230.41 52.2227 230.238 52.5078 230.121 52.8438C230.012 53.1797 229.949 53.5625 229.934 53.9922L229.254 53.7812C229.254 52.9609 229.336 52.207 229.5 51.5195C229.664 50.8242 229.902 50.2188 230.215 49.7031C230.535 49.1875 230.926 48.7891 231.387 48.5078C231.848 48.2266 232.375 48.0859 232.969 48.0859C233.156 48.0859 233.348 48.1016 233.543 48.1328C233.738 48.1562 233.898 48.1914 234.023 48.2383Z" fill="#888888"/>
<path d="M109.219 107.422H100.734V101.07H109.219C110.375 101.07 111.312 100.875 112.031 100.484C112.75 100.094 113.273 99.5547 113.602 98.8672C113.945 98.1641 114.117 97.375 114.117 96.5C114.117 95.5625 113.945 94.6953 113.602 93.8984C113.273 93.1016 112.75 92.4609 112.031 91.9766C111.312 91.4766 110.375 91.2266 109.219 91.2266H103.828V119H95.6016V84.875H109.219C111.953 84.875 114.305 85.375 116.273 86.375C118.258 87.375 119.781 88.75 120.844 90.5C121.906 92.2344 122.438 94.2188 122.438 96.4531C122.438 98.6562 121.906 100.578 120.844 102.219C119.781 103.859 118.258 105.141 116.273 106.062C114.305 106.969 111.953 107.422 109.219 107.422ZM138.445 119.469C136.383 119.469 134.539 119.148 132.914 118.508C131.289 117.852 129.914 116.953 128.789 115.812C127.68 114.672 126.828 113.359 126.234 111.875C125.656 110.391 125.367 108.82 125.367 107.164V106.273C125.367 104.414 125.625 102.695 126.141 101.117C126.656 99.5234 127.422 98.1328 128.438 96.9453C129.453 95.7578 130.727 94.8359 132.258 94.1797C133.789 93.5078 135.57 93.1719 137.602 93.1719C139.398 93.1719 141.008 93.4609 142.43 94.0391C143.852 94.6172 145.055 95.4453 146.039 96.5234C147.039 97.6016 147.797 98.9062 148.312 100.438C148.844 101.969 149.109 103.688 149.109 105.594V108.805H128.391V103.859H141.398V103.25C141.414 102.406 141.266 101.688 140.953 101.094C140.656 100.5 140.219 100.047 139.641 99.7344C139.062 99.4219 138.359 99.2656 137.531 99.2656C136.672 99.2656 135.961 99.4531 135.398 99.8281C134.852 100.203 134.422 100.719 134.109 101.375C133.812 102.016 133.602 102.758 133.477 103.602C133.352 104.445 133.289 105.336 133.289 106.273V107.164C133.289 108.102 133.414 108.953 133.664 109.719C133.93 110.484 134.305 111.141 134.789 111.688C135.289 112.219 135.883 112.633 136.57 112.93C137.273 113.227 138.07 113.375 138.961 113.375C140.039 113.375 141.102 113.172 142.148 112.766C143.195 112.359 144.094 111.688 144.844 110.75L148.43 115.016C147.914 115.75 147.18 116.461 146.227 117.148C145.289 117.836 144.164 118.398 142.852 118.836C141.539 119.258 140.07 119.469 138.445 119.469ZM160.289 99.9219V119H152.391V93.6406H159.773L160.289 99.9219ZM167.789 93.4531L167.648 100.789C167.336 100.758 166.914 100.719 166.383 100.672C165.852 100.625 165.406 100.602 165.047 100.602C164.125 100.602 163.328 100.711 162.656 100.93C162 101.133 161.453 101.445 161.016 101.867C160.594 102.273 160.281 102.789 160.078 103.414C159.891 104.039 159.805 104.766 159.82 105.594L158.391 104.656C158.391 102.953 158.555 101.406 158.883 100.016C159.227 98.6094 159.711 97.3984 160.336 96.3828C160.961 95.3516 161.719 94.5625 162.609 94.0156C163.5 93.4531 164.5 93.1719 165.609 93.1719C166 93.1719 166.383 93.1953 166.758 93.2422C167.148 93.2891 167.492 93.3594 167.789 93.4531ZM180.703 119H172.758V91.5781C172.758 89.6094 173.156 87.9531 173.953 86.6094C174.75 85.2656 175.875 84.25 177.328 83.5625C178.781 82.8594 180.5 82.5078 182.484 82.5078C183.172 82.5078 183.82 82.5547 184.43 82.6484C185.039 82.7422 185.633 82.8594 186.211 83L186.234 88.8125C185.953 88.7344 185.664 88.6797 185.367 88.6484C185.07 88.6172 184.703 88.6016 184.266 88.6016C183.5 88.6016 182.852 88.7188 182.32 88.9531C181.789 89.1719 181.383 89.5078 181.102 89.9609C180.836 90.3984 180.703 90.9375 180.703 91.5781V119ZM185.625 93.6406V99.125H169.102V93.6406H185.625ZM187.477 106.578V106.086C187.477 104.227 187.742 102.516 188.273 100.953C188.805 99.375 189.586 98.0078 190.617 96.8516C191.648 95.6953 192.922 94.7969 194.438 94.1562C195.953 93.5 197.703 93.1719 199.688 93.1719C201.688 93.1719 203.445 93.5 204.961 94.1562C206.492 94.7969 207.773 95.6953 208.805 96.8516C209.836 98.0078 210.617 99.375 211.148 100.953C211.68 102.516 211.945 104.227 211.945 106.086V106.578C211.945 108.422 211.68 110.133 211.148 111.711C210.617 113.273 209.836 114.641 208.805 115.812C207.773 116.969 206.5 117.867 204.984 118.508C203.469 119.148 201.719 119.469 199.734 119.469C197.75 119.469 195.992 119.148 194.461 118.508C192.93 117.867 191.648 116.969 190.617 115.812C189.586 114.641 188.805 113.273 188.273 111.711C187.742 110.133 187.477 108.422 187.477 106.578ZM195.375 106.086V106.578C195.375 107.531 195.445 108.422 195.586 109.25C195.727 110.078 195.961 110.805 196.289 111.43C196.617 112.039 197.062 112.516 197.625 112.859C198.188 113.203 198.891 113.375 199.734 113.375C200.562 113.375 201.25 113.203 201.797 112.859C202.359 112.516 202.805 112.039 203.133 111.43C203.461 110.805 203.695 110.078 203.836 109.25C203.977 108.422 204.047 107.531 204.047 106.578V106.086C204.047 105.164 203.977 104.297 203.836 103.484C203.695 102.656 203.461 101.93 203.133 101.305C202.805 100.664 202.359 100.164 201.797 99.8047C201.234 99.4453 200.531 99.2656 199.688 99.2656C198.859 99.2656 198.164 99.4453 197.602 99.8047C197.055 100.164 196.617 100.664 196.289 101.305C195.961 101.93 195.727 102.656 195.586 103.484C195.445 104.297 195.375 105.164 195.375 106.086ZM223.43 99.9219V119H215.531V93.6406H222.914L223.43 99.9219ZM230.93 93.4531L230.789 100.789C230.477 100.758 230.055 100.719 229.523 100.672C228.992 100.625 228.547 100.602 228.188 100.602C227.266 100.602 226.469 100.711 225.797 100.93C225.141 101.133 224.594 101.445 224.156 101.867C223.734 102.273 223.422 102.789 223.219 103.414C223.031 104.039 222.945 104.766 222.961 105.594L221.531 104.656C221.531 102.953 221.695 101.406 222.023 100.016C222.367 98.6094 222.852 97.3984 223.477 96.3828C224.102 95.3516 224.859 94.5625 225.75 94.0156C226.641 93.4531 227.641 93.1719 228.75 93.1719C229.141 93.1719 229.523 93.1953 229.898 93.2422C230.289 93.2891 230.633 93.3594 230.93 93.4531ZM241.617 99.0078V119H233.719V93.6406H241.125L241.617 99.0078ZM240.656 105.453L238.852 105.5C238.852 103.719 239.062 102.078 239.484 100.578C239.906 99.0781 240.531 97.7734 241.359 96.6641C242.188 95.5547 243.203 94.6953 244.406 94.0859C245.625 93.4766 247.031 93.1719 248.625 93.1719C249.734 93.1719 250.742 93.3438 251.648 93.6875C252.555 94.0156 253.336 94.5391 253.992 95.2578C254.648 95.9609 255.148 96.8828 255.492 98.0234C255.852 99.1484 256.031 100.5 256.031 102.078V119H248.133V103.086C248.133 102.008 248.008 101.195 247.758 100.648C247.523 100.102 247.18 99.7344 246.727 99.5469C246.273 99.3594 245.719 99.2656 245.062 99.2656C244.375 99.2656 243.758 99.4219 243.211 99.7344C242.664 100.047 242.195 100.484 241.805 101.047C241.43 101.594 241.141 102.242 240.938 102.992C240.75 103.742 240.656 104.562 240.656 105.453ZM255.141 105.453L252.938 105.5C252.938 103.719 253.133 102.078 253.523 100.578C253.93 99.0781 254.531 97.7734 255.328 96.6641C256.141 95.5547 257.148 94.6953 258.352 94.0859C259.555 93.4766 260.953 93.1719 262.547 93.1719C263.703 93.1719 264.766 93.3438 265.734 93.6875C266.703 94.0312 267.539 94.5859 268.242 95.3516C268.945 96.1172 269.492 97.1328 269.883 98.3984C270.273 99.6484 270.469 101.195 270.469 103.039V119H262.547V103.039C262.547 101.992 262.422 101.203 262.172 100.672C261.938 100.125 261.594 99.7578 261.141 99.5703C260.688 99.3672 260.148 99.2656 259.523 99.2656C258.773 99.2656 258.125 99.4219 257.578 99.7344C257.031 100.047 256.57 100.484 256.195 101.047C255.836 101.594 255.57 102.242 255.398 102.992C255.227 103.742 255.141 104.562 255.141 105.453ZM288.164 112.625V102.172C288.164 101.453 288.062 100.836 287.859 100.32C287.656 99.8047 287.336 99.4062 286.898 99.125C286.461 98.8281 285.875 98.6797 285.141 98.6797C284.547 98.6797 284.039 98.7812 283.617 98.9844C283.195 99.1875 282.875 99.4922 282.656 99.8984C282.438 100.305 282.328 100.82 282.328 101.445H274.43C274.43 100.273 274.688 99.1875 275.203 98.1875C275.734 97.1719 276.484 96.2891 277.453 95.5391C278.438 94.7891 279.609 94.2109 280.969 93.8047C282.344 93.3828 283.875 93.1719 285.562 93.1719C287.578 93.1719 289.375 93.5078 290.953 94.1797C292.547 94.8516 293.805 95.8594 294.727 97.2031C295.648 98.5312 296.109 100.203 296.109 102.219V112.602C296.109 114.258 296.203 115.516 296.391 116.375C296.578 117.219 296.844 117.961 297.188 118.602V119H289.266C288.891 118.219 288.609 117.266 288.422 116.141C288.25 115 288.164 113.828 288.164 112.625ZM289.125 103.508L289.172 107.727H285.68C284.945 107.727 284.32 107.828 283.805 108.031C283.305 108.234 282.898 108.516 282.586 108.875C282.289 109.219 282.07 109.609 281.93 110.047C281.805 110.484 281.742 110.945 281.742 111.43C281.742 111.898 281.852 112.32 282.07 112.695C282.305 113.055 282.617 113.336 283.008 113.539C283.398 113.742 283.836 113.844 284.32 113.844C285.195 113.844 285.938 113.68 286.547 113.352C287.172 113.008 287.648 112.594 287.977 112.109C288.305 111.625 288.469 111.172 288.469 110.75L290.203 113.984C289.891 114.609 289.531 115.242 289.125 115.883C288.734 116.523 288.242 117.117 287.648 117.664C287.07 118.195 286.359 118.633 285.516 118.977C284.672 119.305 283.648 119.469 282.445 119.469C280.883 119.469 279.445 119.148 278.133 118.508C276.836 117.867 275.797 116.977 275.016 115.836C274.234 114.68 273.844 113.352 273.844 111.852C273.844 110.539 274.078 109.367 274.547 108.336C275.031 107.305 275.758 106.43 276.727 105.711C277.695 104.992 278.93 104.445 280.43 104.07C281.93 103.695 283.695 103.508 285.727 103.508H289.125ZM308.25 99.0547V119H300.352V93.6406H307.758L308.25 99.0547ZM307.312 105.453L305.461 105.5C305.461 103.562 305.695 101.836 306.164 100.32C306.633 98.7891 307.297 97.4922 308.156 96.4297C309.016 95.3672 310.039 94.5625 311.227 94.0156C312.43 93.4531 313.766 93.1719 315.234 93.1719C316.406 93.1719 317.477 93.3438 318.445 93.6875C319.43 94.0312 320.273 94.5859 320.977 95.3516C321.695 96.1172 322.242 97.1328 322.617 98.3984C323.008 99.6484 323.203 101.195 323.203 103.039V119H315.258V103.016C315.258 102 315.117 101.227 314.836 100.695C314.555 100.148 314.148 99.7734 313.617 99.5703C313.086 99.3672 312.438 99.2656 311.672 99.2656C310.859 99.2656 310.172 99.4219 309.609 99.7344C309.047 100.047 308.594 100.484 308.25 101.047C307.922 101.594 307.68 102.242 307.523 102.992C307.383 103.742 307.312 104.562 307.312 105.453ZM338.297 113.375C339.031 113.375 339.656 113.242 340.172 112.977C340.703 112.695 341.102 112.305 341.367 111.805C341.648 111.289 341.781 110.672 341.766 109.953H349.195C349.211 111.859 348.742 113.531 347.789 114.969C346.852 116.391 345.57 117.5 343.945 118.297C342.336 119.078 340.516 119.469 338.484 119.469C336.5 119.469 334.766 119.148 333.281 118.508C331.797 117.852 330.555 116.945 329.555 115.789C328.57 114.617 327.828 113.25 327.328 111.688C326.844 110.125 326.602 108.43 326.602 106.602V106.062C326.602 104.234 326.844 102.539 327.328 100.977C327.828 99.3984 328.57 98.0312 329.555 96.875C330.555 95.7031 331.789 94.7969 333.258 94.1562C334.742 93.5 336.469 93.1719 338.438 93.1719C340.547 93.1719 342.406 93.5703 344.016 94.3672C345.641 95.1641 346.914 96.3203 347.836 97.8359C348.758 99.3516 349.211 101.188 349.195 103.344H341.766C341.781 102.578 341.664 101.891 341.414 101.281C341.164 100.672 340.773 100.188 340.242 99.8281C339.727 99.4531 339.062 99.2656 338.25 99.2656C337.438 99.2656 336.781 99.4453 336.281 99.8047C335.781 100.164 335.398 100.664 335.133 101.305C334.883 101.93 334.711 102.648 334.617 103.461C334.539 104.273 334.5 105.141 334.5 106.062V106.602C334.5 107.539 334.539 108.422 334.617 109.25C334.711 110.062 334.891 110.781 335.156 111.406C335.422 112.016 335.805 112.5 336.305 112.859C336.805 113.203 337.469 113.375 338.297 113.375ZM364.852 119.469C362.789 119.469 360.945 119.148 359.32 118.508C357.695 117.852 356.32 116.953 355.195 115.812C354.086 114.672 353.234 113.359 352.641 111.875C352.062 110.391 351.773 108.82 351.773 107.164V106.273C351.773 104.414 352.031 102.695 352.547 101.117C353.062 99.5234 353.828 98.1328 354.844 96.9453C355.859 95.7578 357.133 94.8359 358.664 94.1797C360.195 93.5078 361.977 93.1719 364.008 93.1719C365.805 93.1719 367.414 93.4609 368.836 94.0391C370.258 94.6172 371.461 95.4453 372.445 96.5234C373.445 97.6016 374.203 98.9062 374.719 100.438C375.25 101.969 375.516 103.688 375.516 105.594V108.805H354.797V103.859H367.805V103.25C367.82 102.406 367.672 101.688 367.359 101.094C367.062 100.5 366.625 100.047 366.047 99.7344C365.469 99.4219 364.766 99.2656 363.938 99.2656C363.078 99.2656 362.367 99.4531 361.805 99.8281C361.258 100.203 360.828 100.719 360.516 101.375C360.219 102.016 360.008 102.758 359.883 103.602C359.758 104.445 359.695 105.336 359.695 106.273V107.164C359.695 108.102 359.82 108.953 360.07 109.719C360.336 110.484 360.711 111.141 361.195 111.688C361.695 112.219 362.289 112.633 362.977 112.93C363.68 113.227 364.477 113.375 365.367 113.375C366.445 113.375 367.508 113.172 368.555 112.766C369.602 112.359 370.5 111.688 371.25 110.75L374.836 115.016C374.32 115.75 373.586 116.461 372.633 117.148C371.695 117.836 370.57 118.398 369.258 118.836C367.945 119.258 366.477 119.469 364.852 119.469Z" fill="black"/>
<path d="M1134 0H1348C1356.28 0 1363 6.71573 1363 15V148C1363 156.284 1356.28 163 1348 163H1134V0Z" fill="#2FD671"/>
<path d="M1265.17 71.5L1252.79 90.0662C1252.36 90.7051 1251.41 90.6455 1251.06 89.9587L1245.94 79.7079C1245.59 79.0212 1244.64 78.9616 1244.21 79.6004L1231.83 98.1667" stroke="white" stroke-width="5" stroke-linecap="round" stroke-linejoin="round"/>
<rect x="1218.5" y="51.5" width="60" height="60" rx="2" stroke="white" stroke-width="5"/>
</svg>
