<svg width="1363" height="163" viewBox="0 0 1363 163" fill="none" xmlns="http://www.w3.org/2000/svg">
<path d="M0 15C0 6.71573 6.71573 0 15 0H37V163H15C6.71573 163 0 156.284 0 148V15Z" fill="#2FD671"/>
<rect width="1097" height="163" transform="translate(37)" fill="#F0F0F0"/>
<path d="M101.906 53.9219L94.3945 51.2383V48.0859L104.602 52.375V54.6367L101.906 53.9219ZM94.3945 56.1719L101.918 53.4297L104.602 52.7852V55.0352L94.3945 59.3242V56.1719ZM116.25 48.3203V61H112.863V48.3203H116.25ZM112.652 45.0156C112.652 44.5234 112.824 44.1172 113.168 43.7969C113.512 43.4766 113.973 43.3164 114.551 43.3164C115.121 43.3164 115.578 43.4766 115.922 43.7969C116.273 44.1172 116.449 44.5234 116.449 45.0156C116.449 45.5078 116.273 45.9141 115.922 46.2344C115.578 46.5547 115.121 46.7148 114.551 46.7148C113.973 46.7148 113.512 46.5547 113.168 46.2344C112.824 45.9141 112.652 45.5078 112.652 45.0156ZM129.141 55.3398H132.645C132.574 56.4883 132.258 57.5078 131.695 58.3984C131.141 59.2891 130.363 59.9844 129.363 60.4844C128.371 60.9844 127.176 61.2344 125.777 61.2344C124.684 61.2344 123.703 61.0469 122.836 60.6719C121.969 60.2891 121.227 59.7422 120.609 59.0312C120 58.3203 119.535 57.4609 119.215 56.4531C118.895 55.4453 118.734 54.3164 118.734 53.0664V51.8828C118.734 50.6328 118.898 49.5039 119.227 48.4961C119.562 47.4805 120.039 46.6172 120.656 45.9062C121.281 45.1953 122.027 44.6484 122.895 44.2656C123.762 43.8828 124.73 43.6914 125.801 43.6914C127.223 43.6914 128.422 43.9492 129.398 44.4648C130.383 44.9805 131.145 45.6914 131.684 46.5977C132.23 47.5039 132.559 48.5352 132.668 49.6914H129.152C129.113 49.0039 128.977 48.4219 128.742 47.9453C128.508 47.4609 128.152 47.0977 127.676 46.8555C127.207 46.6055 126.582 46.4805 125.801 46.4805C125.215 46.4805 124.703 46.5898 124.266 46.8086C123.828 47.0273 123.461 47.3594 123.164 47.8047C122.867 48.25 122.645 48.8125 122.496 49.4922C122.355 50.1641 122.285 50.9531 122.285 51.8594V53.0664C122.285 53.9492 122.352 54.7266 122.484 55.3984C122.617 56.0625 122.82 56.625 123.094 57.0859C123.375 57.5391 123.734 57.8828 124.172 58.1172C124.617 58.3438 125.152 58.457 125.777 58.457C126.512 58.457 127.117 58.3398 127.594 58.1055C128.07 57.8711 128.434 57.5234 128.684 57.0625C128.941 56.6016 129.094 56.0273 129.141 55.3398ZM138.035 43V61H134.66V43H138.035ZM137.555 54.2148H136.629C136.637 53.332 136.754 52.5195 136.98 51.7773C137.207 51.0273 137.531 50.3789 137.953 49.832C138.375 49.2773 138.879 48.8477 139.465 48.543C140.059 48.2383 140.715 48.0859 141.434 48.0859C142.059 48.0859 142.625 48.1758 143.133 48.3555C143.648 48.5273 144.09 48.8086 144.457 49.1992C144.832 49.582 145.121 50.0859 145.324 50.7109C145.527 51.3359 145.629 52.0938 145.629 52.9844V61H142.23V52.9609C142.23 52.3984 142.148 51.957 141.984 51.6367C141.828 51.3086 141.598 51.0781 141.293 50.9453C140.996 50.8047 140.629 50.7344 140.191 50.7344C139.707 50.7344 139.293 50.8242 138.949 51.0039C138.613 51.1836 138.344 51.4336 138.141 51.7539C137.938 52.0664 137.789 52.4336 137.695 52.8555C137.602 53.2773 137.555 53.7305 137.555 54.2148ZM155.039 58.1406V52.4922C155.039 52.0859 154.973 51.7383 154.84 51.4492C154.707 51.1523 154.5 50.9219 154.219 50.7578C153.945 50.5938 153.59 50.5117 153.152 50.5117C152.777 50.5117 152.453 50.5781 152.18 50.7109C151.906 50.8359 151.695 51.0195 151.547 51.2617C151.398 51.4961 151.324 51.7734 151.324 52.0938H147.949C147.949 51.5547 148.074 51.043 148.324 50.5586C148.574 50.0742 148.938 49.6484 149.414 49.2812C149.891 48.9062 150.457 48.6133 151.113 48.4023C151.777 48.1914 152.52 48.0859 153.34 48.0859C154.324 48.0859 155.199 48.25 155.965 48.5781C156.73 48.9062 157.332 49.3984 157.77 50.0547C158.215 50.7109 158.438 51.5312 158.438 52.5156V57.9414C158.438 58.6367 158.48 59.207 158.566 59.6523C158.652 60.0898 158.777 60.4727 158.941 60.8008V61H155.531C155.367 60.6562 155.242 60.2266 155.156 59.7109C155.078 59.1875 155.039 58.6641 155.039 58.1406ZM155.484 53.2773L155.508 55.1875H153.621C153.176 55.1875 152.789 55.2383 152.461 55.3398C152.133 55.4414 151.863 55.5859 151.652 55.7734C151.441 55.9531 151.285 56.1641 151.184 56.4062C151.09 56.6484 151.043 56.9141 151.043 57.2031C151.043 57.4922 151.109 57.7539 151.242 57.9883C151.375 58.2148 151.566 58.3945 151.816 58.5273C152.066 58.6523 152.359 58.7148 152.695 58.7148C153.203 58.7148 153.645 58.6133 154.02 58.4102C154.395 58.207 154.684 57.957 154.887 57.6602C155.098 57.3633 155.207 57.082 155.215 56.8164L156.105 58.2461C155.98 58.5664 155.809 58.8984 155.59 59.2422C155.379 59.5859 155.109 59.9102 154.781 60.2148C154.453 60.5117 154.059 60.7578 153.598 60.9531C153.137 61.1406 152.59 61.2344 151.957 61.2344C151.152 61.2344 150.422 61.0742 149.766 60.7539C149.117 60.4258 148.602 59.9766 148.219 59.4062C147.844 58.8281 147.656 58.1719 147.656 57.4375C147.656 56.7734 147.781 56.1836 148.031 55.668C148.281 55.1523 148.648 54.7188 149.133 54.3672C149.625 54.0078 150.238 53.7383 150.973 53.5586C151.707 53.3711 152.559 53.2773 153.527 53.2773H155.484ZM164.602 43V61H161.215V43H164.602ZM170.953 43V61H167.566V43H170.953ZM179.578 61.2344C178.594 61.2344 177.711 61.0781 176.93 60.7656C176.148 60.4453 175.484 60.0039 174.938 59.4414C174.398 58.8789 173.984 58.2266 173.695 57.4844C173.406 56.7344 173.262 55.9375 173.262 55.0938V54.625C173.262 53.6641 173.398 52.7852 173.672 51.9883C173.945 51.1914 174.336 50.5 174.844 49.9141C175.359 49.3281 175.984 48.8789 176.719 48.5664C177.453 48.2461 178.281 48.0859 179.203 48.0859C180.102 48.0859 180.898 48.2344 181.594 48.5312C182.289 48.8281 182.871 49.25 183.34 49.7969C183.816 50.3438 184.176 51 184.418 51.7656C184.66 52.5234 184.781 53.3672 184.781 54.2969V55.7031H174.703V53.4531H181.465V53.1953C181.465 52.7266 181.379 52.3086 181.207 51.9414C181.043 51.5664 180.793 51.2695 180.457 51.0508C180.121 50.832 179.691 50.7227 179.168 50.7227C178.723 50.7227 178.34 50.8203 178.02 51.0156C177.699 51.2109 177.438 51.4844 177.234 51.8359C177.039 52.1875 176.891 52.6016 176.789 53.0781C176.695 53.5469 176.648 54.0625 176.648 54.625V55.0938C176.648 55.6016 176.719 56.0703 176.859 56.5C177.008 56.9297 177.215 57.3008 177.48 57.6133C177.754 57.9258 178.082 58.168 178.465 58.3398C178.855 58.5117 179.297 58.5977 179.789 58.5977C180.398 58.5977 180.965 58.4805 181.488 58.2461C182.02 58.0039 182.477 57.6406 182.859 57.1562L184.5 58.9375C184.234 59.3203 183.871 59.6875 183.41 60.0391C182.957 60.3906 182.41 60.6797 181.77 60.9062C181.129 61.125 180.398 61.2344 179.578 61.2344ZM190.008 51.0273V61H186.633V48.3203H189.797L190.008 51.0273ZM189.516 54.2148H188.602C188.602 53.2773 188.723 52.4336 188.965 51.6836C189.207 50.9258 189.547 50.2812 189.984 49.75C190.422 49.2109 190.941 48.8008 191.543 48.5195C192.152 48.2305 192.832 48.0859 193.582 48.0859C194.176 48.0859 194.719 48.1719 195.211 48.3438C195.703 48.5156 196.125 48.7891 196.477 49.1641C196.836 49.5391 197.109 50.0352 197.297 50.6523C197.492 51.2695 197.59 52.0234 197.59 52.9141V61H194.191V52.9023C194.191 52.3398 194.113 51.9023 193.957 51.5898C193.801 51.2773 193.57 51.0586 193.266 50.9336C192.969 50.8008 192.602 50.7344 192.164 50.7344C191.711 50.7344 191.316 50.8242 190.98 51.0039C190.652 51.1836 190.379 51.4336 190.16 51.7539C189.949 52.0664 189.789 52.4336 189.68 52.8555C189.57 53.2773 189.516 53.7305 189.516 54.2148ZM208.184 48.3203H211.242V60.5781C211.242 61.7344 210.984 62.7148 210.469 63.5195C209.961 64.332 209.25 64.9453 208.336 65.3594C207.422 65.7812 206.359 65.9922 205.148 65.9922C204.617 65.9922 204.055 65.9219 203.461 65.7812C202.875 65.6406 202.312 65.4219 201.773 65.125C201.242 64.8281 200.797 64.4531 200.438 64L201.926 62.0078C202.316 62.4609 202.77 62.8125 203.285 63.0625C203.801 63.3203 204.371 63.4492 204.996 63.4492C205.605 63.4492 206.121 63.3359 206.543 63.1094C206.965 62.8906 207.289 62.5664 207.516 62.1367C207.742 61.7148 207.855 61.2031 207.855 60.6016V51.25L208.184 48.3203ZM199.652 54.8125V54.5664C199.652 53.5977 199.77 52.7188 200.004 51.9297C200.246 51.1328 200.586 50.4492 201.023 49.8789C201.469 49.3086 202.008 48.8672 202.641 48.5547C203.273 48.2422 203.988 48.0859 204.785 48.0859C205.629 48.0859 206.336 48.2422 206.906 48.5547C207.477 48.8672 207.945 49.3125 208.312 49.8906C208.68 50.4609 208.965 51.1367 209.168 51.918C209.379 52.6914 209.543 53.5391 209.66 54.4609V55C209.543 55.8828 209.367 56.7031 209.133 57.4609C208.898 58.2188 208.59 58.8828 208.207 59.4531C207.824 60.0156 207.348 60.4531 206.777 60.7656C206.215 61.0781 205.543 61.2344 204.762 61.2344C203.98 61.2344 203.273 61.0742 202.641 60.7539C202.016 60.4336 201.48 59.9844 201.035 59.4062C200.59 58.8281 200.246 58.1484 200.004 57.3672C199.77 56.5859 199.652 55.7344 199.652 54.8125ZM203.027 54.5664V54.8125C203.027 55.3359 203.078 55.8242 203.18 56.2773C203.281 56.7305 203.438 57.1328 203.648 57.4844C203.867 57.8281 204.137 58.0977 204.457 58.293C204.785 58.4805 205.172 58.5742 205.617 58.5742C206.234 58.5742 206.738 58.4453 207.129 58.1875C207.52 57.9219 207.812 57.5586 208.008 57.0977C208.203 56.6367 208.316 56.1055 208.348 55.5039V53.9688C208.332 53.4766 208.266 53.0352 208.148 52.6445C208.031 52.2461 207.867 51.9062 207.656 51.625C207.445 51.3438 207.172 51.125 206.836 50.9688C206.5 50.8125 206.102 50.7344 205.641 50.7344C205.195 50.7344 204.809 50.8359 204.48 51.0391C204.16 51.2344 203.891 51.5039 203.672 51.8477C203.461 52.1914 203.301 52.5977 203.191 53.0664C203.082 53.5273 203.027 54.0273 203.027 54.5664ZM219.703 61.2344C218.719 61.2344 217.836 61.0781 217.055 60.7656C216.273 60.4453 215.609 60.0039 215.062 59.4414C214.523 58.8789 214.109 58.2266 213.82 57.4844C213.531 56.7344 213.387 55.9375 213.387 55.0938V54.625C213.387 53.6641 213.523 52.7852 213.797 51.9883C214.07 51.1914 214.461 50.5 214.969 49.9141C215.484 49.3281 216.109 48.8789 216.844 48.5664C217.578 48.2461 218.406 48.0859 219.328 48.0859C220.227 48.0859 221.023 48.2344 221.719 48.5312C222.414 48.8281 222.996 49.25 223.465 49.7969C223.941 50.3438 224.301 51 224.543 51.7656C224.785 52.5234 224.906 53.3672 224.906 54.2969V55.7031H214.828V53.4531H221.59V53.1953C221.59 52.7266 221.504 52.3086 221.332 51.9414C221.168 51.5664 220.918 51.2695 220.582 51.0508C220.246 50.832 219.816 50.7227 219.293 50.7227C218.848 50.7227 218.465 50.8203 218.145 51.0156C217.824 51.2109 217.562 51.4844 217.359 51.8359C217.164 52.1875 217.016 52.6016 216.914 53.0781C216.82 53.5469 216.773 54.0625 216.773 54.625V55.0938C216.773 55.6016 216.844 56.0703 216.984 56.5C217.133 56.9297 217.34 57.3008 217.605 57.6133C217.879 57.9258 218.207 58.168 218.59 58.3398C218.98 58.5117 219.422 58.5977 219.914 58.5977C220.523 58.5977 221.09 58.4805 221.613 58.2461C222.145 58.0039 222.602 57.6406 222.984 57.1562L224.625 58.9375C224.359 59.3203 223.996 59.6875 223.535 60.0391C223.082 60.3906 222.535 60.6797 221.895 60.9062C221.254 61.125 220.523 61.2344 219.703 61.2344ZM230.203 51.0859V61H226.828V48.3203H230.004L230.203 51.0859ZM234.023 48.2383L233.965 51.3672C233.801 51.3438 233.602 51.3242 233.367 51.3086C233.141 51.2852 232.934 51.2734 232.746 51.2734C232.27 51.2734 231.855 51.3359 231.504 51.4609C231.16 51.5781 230.871 51.7539 230.637 51.9883C230.41 52.2227 230.238 52.5078 230.121 52.8438C230.012 53.1797 229.949 53.5625 229.934 53.9922L229.254 53.7812C229.254 52.9609 229.336 52.207 229.5 51.5195C229.664 50.8242 229.902 50.2188 230.215 49.7031C230.535 49.1875 230.926 48.7891 231.387 48.5078C231.848 48.2266 232.375 48.0859 232.969 48.0859C233.156 48.0859 233.348 48.1016 233.543 48.1328C233.738 48.1562 233.898 48.1914 234.023 48.2383Z" fill="#888888"/>
<path d="M106.688 119H99.1172L99.1641 112.672H106.688C108.25 112.672 109.57 112.297 110.648 111.547C111.742 110.797 112.57 109.68 113.133 108.195C113.711 106.695 114 104.852 114 102.664V101.188C114 99.5469 113.836 98.1094 113.508 96.875C113.195 95.625 112.727 94.5859 112.102 93.7578C111.477 92.9141 110.695 92.2812 109.758 91.8594C108.836 91.4375 107.773 91.2266 106.57 91.2266H98.9766V84.875H106.57C108.883 84.875 111 85.2734 112.922 86.0703C114.859 86.8516 116.531 87.9766 117.938 89.4453C119.359 90.8984 120.453 92.625 121.219 94.625C122 96.6094 122.391 98.8125 122.391 101.234V102.664C122.391 105.07 122 107.273 121.219 109.273C120.453 111.273 119.367 113 117.961 114.453C116.555 115.906 114.891 117.031 112.969 117.828C111.062 118.609 108.969 119 106.688 119ZM103.828 84.875V119H95.6016V84.875H103.828ZM138.586 119.469C136.523 119.469 134.68 119.148 133.055 118.508C131.43 117.852 130.055 116.953 128.93 115.812C127.82 114.672 126.969 113.359 126.375 111.875C125.797 110.391 125.508 108.82 125.508 107.164V106.273C125.508 104.414 125.766 102.695 126.281 101.117C126.797 99.5234 127.562 98.1328 128.578 96.9453C129.594 95.7578 130.867 94.8359 132.398 94.1797C133.93 93.5078 135.711 93.1719 137.742 93.1719C139.539 93.1719 141.148 93.4609 142.57 94.0391C143.992 94.6172 145.195 95.4453 146.18 96.5234C147.18 97.6016 147.938 98.9062 148.453 100.438C148.984 101.969 149.25 103.688 149.25 105.594V108.805H128.531V103.859H141.539V103.25C141.555 102.406 141.406 101.688 141.094 101.094C140.797 100.5 140.359 100.047 139.781 99.7344C139.203 99.4219 138.5 99.2656 137.672 99.2656C136.812 99.2656 136.102 99.4531 135.539 99.8281C134.992 100.203 134.562 100.719 134.25 101.375C133.953 102.016 133.742 102.758 133.617 103.602C133.492 104.445 133.43 105.336 133.43 106.273V107.164C133.43 108.102 133.555 108.953 133.805 109.719C134.07 110.484 134.445 111.141 134.93 111.688C135.43 112.219 136.023 112.633 136.711 112.93C137.414 113.227 138.211 113.375 139.102 113.375C140.18 113.375 141.242 113.172 142.289 112.766C143.336 112.359 144.234 111.688 144.984 110.75L148.57 115.016C148.055 115.75 147.32 116.461 146.367 117.148C145.43 117.836 144.305 118.398 142.992 118.836C141.68 119.258 140.211 119.469 138.586 119.469ZM160.43 99.0078V119H152.531V93.6406H159.938L160.43 99.0078ZM159.469 105.453L157.664 105.5C157.664 103.719 157.875 102.078 158.297 100.578C158.719 99.0781 159.344 97.7734 160.172 96.6641C161 95.5547 162.016 94.6953 163.219 94.0859C164.438 93.4766 165.844 93.1719 167.438 93.1719C168.547 93.1719 169.555 93.3438 170.461 93.6875C171.367 94.0156 172.148 94.5391 172.805 95.2578C173.461 95.9609 173.961 96.8828 174.305 98.0234C174.664 99.1484 174.844 100.5 174.844 102.078V119H166.945V103.086C166.945 102.008 166.82 101.195 166.57 100.648C166.336 100.102 165.992 99.7344 165.539 99.5469C165.086 99.3594 164.531 99.2656 163.875 99.2656C163.188 99.2656 162.57 99.4219 162.023 99.7344C161.477 100.047 161.008 100.484 160.617 101.047C160.242 101.594 159.953 102.242 159.75 102.992C159.562 103.742 159.469 104.562 159.469 105.453ZM173.953 105.453L171.75 105.5C171.75 103.719 171.945 102.078 172.336 100.578C172.742 99.0781 173.344 97.7734 174.141 96.6641C174.953 95.5547 175.961 94.6953 177.164 94.0859C178.367 93.4766 179.766 93.1719 181.359 93.1719C182.516 93.1719 183.578 93.3438 184.547 93.6875C185.516 94.0312 186.352 94.5859 187.055 95.3516C187.758 96.1172 188.305 97.1328 188.695 98.3984C189.086 99.6484 189.281 101.195 189.281 103.039V119H181.359V103.039C181.359 101.992 181.234 101.203 180.984 100.672C180.75 100.125 180.406 99.7578 179.953 99.5703C179.5 99.3672 178.961 99.2656 178.336 99.2656C177.586 99.2656 176.938 99.4219 176.391 99.7344C175.844 100.047 175.383 100.484 175.008 101.047C174.648 101.594 174.383 102.242 174.211 102.992C174.039 103.742 173.953 104.562 173.953 105.453ZM192.82 106.578V106.086C192.82 104.227 193.086 102.516 193.617 100.953C194.148 99.375 194.93 98.0078 195.961 96.8516C196.992 95.6953 198.266 94.7969 199.781 94.1562C201.297 93.5 203.047 93.1719 205.031 93.1719C207.031 93.1719 208.789 93.5 210.305 94.1562C211.836 94.7969 213.117 95.6953 214.148 96.8516C215.18 98.0078 215.961 99.375 216.492 100.953C217.023 102.516 217.289 104.227 217.289 106.086V106.578C217.289 108.422 217.023 110.133 216.492 111.711C215.961 113.273 215.18 114.641 214.148 115.812C213.117 116.969 211.844 117.867 210.328 118.508C208.812 119.148 207.062 119.469 205.078 119.469C203.094 119.469 201.336 119.148 199.805 118.508C198.273 117.867 196.992 116.969 195.961 115.812C194.93 114.641 194.148 113.273 193.617 111.711C193.086 110.133 192.82 108.422 192.82 106.578ZM200.719 106.086V106.578C200.719 107.531 200.789 108.422 200.93 109.25C201.07 110.078 201.305 110.805 201.633 111.43C201.961 112.039 202.406 112.516 202.969 112.859C203.531 113.203 204.234 113.375 205.078 113.375C205.906 113.375 206.594 113.203 207.141 112.859C207.703 112.516 208.148 112.039 208.477 111.43C208.805 110.805 209.039 110.078 209.18 109.25C209.32 108.422 209.391 107.531 209.391 106.578V106.086C209.391 105.164 209.32 104.297 209.18 103.484C209.039 102.656 208.805 101.93 208.477 101.305C208.148 100.664 207.703 100.164 207.141 99.8047C206.578 99.4453 205.875 99.2656 205.031 99.2656C204.203 99.2656 203.508 99.4453 202.945 99.8047C202.398 100.164 201.961 100.664 201.633 101.305C201.305 101.93 201.07 102.656 200.93 103.484C200.789 104.297 200.719 105.164 200.719 106.086Z" fill="black"/>
<path d="M1134 0H1348C1356.28 0 1363 6.71573 1363 15V148C1363 156.284 1356.28 163 1348 163H1134V0Z" fill="#2FD671"/>
<path d="M1281 46.5H1216L1213.5 49V114L1216 116.5H1281L1283.5 114V49L1281 46.5ZM1278.5 111.5H1233.5V101.5H1245C1246.5 104.5 1250 106.5 1253.5 106.5C1259 106.5 1263.5 102 1263.5 96.5C1263.5 91 1259 86.5 1253.5 86.5C1248 86.5 1243.5 91 1243.5 96.5H1228.5V111.5H1218.5V51.5H1228.5V63C1225.5 64.5 1223.5 68 1223.5 71.5C1223.5 77 1228 81.5 1233.5 81.5C1239 81.5 1243.5 77 1243.5 71.5H1253.5C1253.5 77 1258 81.5 1263.5 81.5C1269 81.5 1273.5 77 1273.5 71.5C1273.5 66 1269 61.5 1263.5 61.5C1260 61.5 1256.5 63.5 1255 66.5H1242C1240.5 63.5 1237 61.5 1233.5 61.5V51.5H1278.5V111.5ZM1248.5 96.5C1248.5 93.5 1250.5 91.5 1253.5 91.5C1256.5 91.5 1258.5 93.5 1258.5 96.5C1258.5 99.5 1256.5 101.5 1253.5 101.5C1250.5 101.5 1248.5 99.5 1248.5 96.5ZM1233.5 66.5C1236.5 66.5 1238.5 68.5 1238.5 71.5C1238.5 74.5 1236.5 76.5 1233.5 76.5C1230.5 76.5 1228.5 74.5 1228.5 71.5C1228.5 68.5 1230.5 66.5 1233.5 66.5ZM1263.5 66.5C1266.5 66.5 1268.5 68.5 1268.5 71.5C1268.5 74.5 1266.5 76.5 1263.5 76.5C1260.5 76.5 1258.5 74.5 1258.5 71.5C1258.5 68.5 1260.5 66.5 1263.5 66.5Z" fill="white"/>
</svg>
