<svg width="1363" height="163" viewBox="0 0 1363 163" fill="none" xmlns="http://www.w3.org/2000/svg">
<path d="M0 15C0 6.71573 6.71573 0 15 0H37V163H15C6.71573 163 0 156.284 0 148V15Z" fill="#2FD671"/>
<rect width="1097" height="163" transform="translate(37)" fill="#F0F0F0"/>
<path d="M101.906 53.9219L94.3945 51.2383V48.0859L104.602 52.375V54.6367L101.906 53.9219ZM94.3945 56.1719L101.918 53.4297L104.602 52.7852V55.0352L94.3945 59.3242V56.1719ZM116.25 48.3203V61H112.863V48.3203H116.25ZM112.652 45.0156C112.652 44.5234 112.824 44.1172 113.168 43.7969C113.512 43.4766 113.973 43.3164 114.551 43.3164C115.121 43.3164 115.578 43.4766 115.922 43.7969C116.273 44.1172 116.449 44.5234 116.449 45.0156C116.449 45.5078 116.273 45.9141 115.922 46.2344C115.578 46.5547 115.121 46.7148 114.551 46.7148C113.973 46.7148 113.512 46.5547 113.168 46.2344C112.824 45.9141 112.652 45.5078 112.652 45.0156ZM129.141 55.3398H132.645C132.574 56.4883 132.258 57.5078 131.695 58.3984C131.141 59.2891 130.363 59.9844 129.363 60.4844C128.371 60.9844 127.176 61.2344 125.777 61.2344C124.684 61.2344 123.703 61.0469 122.836 60.6719C121.969 60.2891 121.227 59.7422 120.609 59.0312C120 58.3203 119.535 57.4609 119.215 56.4531C118.895 55.4453 118.734 54.3164 118.734 53.0664V51.8828C118.734 50.6328 118.898 49.5039 119.227 48.4961C119.562 47.4805 120.039 46.6172 120.656 45.9062C121.281 45.1953 122.027 44.6484 122.895 44.2656C123.762 43.8828 124.73 43.6914 125.801 43.6914C127.223 43.6914 128.422 43.9492 129.398 44.4648C130.383 44.9805 131.145 45.6914 131.684 46.5977C132.23 47.5039 132.559 48.5352 132.668 49.6914H129.152C129.113 49.0039 128.977 48.4219 128.742 47.9453C128.508 47.4609 128.152 47.0977 127.676 46.8555C127.207 46.6055 126.582 46.4805 125.801 46.4805C125.215 46.4805 124.703 46.5898 124.266 46.8086C123.828 47.0273 123.461 47.3594 123.164 47.8047C122.867 48.25 122.645 48.8125 122.496 49.4922C122.355 50.1641 122.285 50.9531 122.285 51.8594V53.0664C122.285 53.9492 122.352 54.7266 122.484 55.3984C122.617 56.0625 122.82 56.625 123.094 57.0859C123.375 57.5391 123.734 57.8828 124.172 58.1172C124.617 58.3438 125.152 58.457 125.777 58.457C126.512 58.457 127.117 58.3398 127.594 58.1055C128.07 57.8711 128.434 57.5234 128.684 57.0625C128.941 56.6016 129.094 56.0273 129.141 55.3398ZM138.035 43V61H134.66V43H138.035ZM137.555 54.2148H136.629C136.637 53.332 136.754 52.5195 136.98 51.7773C137.207 51.0273 137.531 50.3789 137.953 49.832C138.375 49.2773 138.879 48.8477 139.465 48.543C140.059 48.2383 140.715 48.0859 141.434 48.0859C142.059 48.0859 142.625 48.1758 143.133 48.3555C143.648 48.5273 144.09 48.8086 144.457 49.1992C144.832 49.582 145.121 50.0859 145.324 50.7109C145.527 51.3359 145.629 52.0938 145.629 52.9844V61H142.23V52.9609C142.23 52.3984 142.148 51.957 141.984 51.6367C141.828 51.3086 141.598 51.0781 141.293 50.9453C140.996 50.8047 140.629 50.7344 140.191 50.7344C139.707 50.7344 139.293 50.8242 138.949 51.0039C138.613 51.1836 138.344 51.4336 138.141 51.7539C137.938 52.0664 137.789 52.4336 137.695 52.8555C137.602 53.2773 137.555 53.7305 137.555 54.2148ZM155.039 58.1406V52.4922C155.039 52.0859 154.973 51.7383 154.84 51.4492C154.707 51.1523 154.5 50.9219 154.219 50.7578C153.945 50.5938 153.59 50.5117 153.152 50.5117C152.777 50.5117 152.453 50.5781 152.18 50.7109C151.906 50.8359 151.695 51.0195 151.547 51.2617C151.398 51.4961 151.324 51.7734 151.324 52.0938H147.949C147.949 51.5547 148.074 51.043 148.324 50.5586C148.574 50.0742 148.938 49.6484 149.414 49.2812C149.891 48.9062 150.457 48.6133 151.113 48.4023C151.777 48.1914 152.52 48.0859 153.34 48.0859C154.324 48.0859 155.199 48.25 155.965 48.5781C156.73 48.9062 157.332 49.3984 157.77 50.0547C158.215 50.7109 158.438 51.5312 158.438 52.5156V57.9414C158.438 58.6367 158.48 59.207 158.566 59.6523C158.652 60.0898 158.777 60.4727 158.941 60.8008V61H155.531C155.367 60.6562 155.242 60.2266 155.156 59.7109C155.078 59.1875 155.039 58.6641 155.039 58.1406ZM155.484 53.2773L155.508 55.1875H153.621C153.176 55.1875 152.789 55.2383 152.461 55.3398C152.133 55.4414 151.863 55.5859 151.652 55.7734C151.441 55.9531 151.285 56.1641 151.184 56.4062C151.09 56.6484 151.043 56.9141 151.043 57.2031C151.043 57.4922 151.109 57.7539 151.242 57.9883C151.375 58.2148 151.566 58.3945 151.816 58.5273C152.066 58.6523 152.359 58.7148 152.695 58.7148C153.203 58.7148 153.645 58.6133 154.02 58.4102C154.395 58.207 154.684 57.957 154.887 57.6602C155.098 57.3633 155.207 57.082 155.215 56.8164L156.105 58.2461C155.98 58.5664 155.809 58.8984 155.59 59.2422C155.379 59.5859 155.109 59.9102 154.781 60.2148C154.453 60.5117 154.059 60.7578 153.598 60.9531C153.137 61.1406 152.59 61.2344 151.957 61.2344C151.152 61.2344 150.422 61.0742 149.766 60.7539C149.117 60.4258 148.602 59.9766 148.219 59.4062C147.844 58.8281 147.656 58.1719 147.656 57.4375C147.656 56.7734 147.781 56.1836 148.031 55.668C148.281 55.1523 148.648 54.7188 149.133 54.3672C149.625 54.0078 150.238 53.7383 150.973 53.5586C151.707 53.3711 152.559 53.2773 153.527 53.2773H155.484ZM164.602 43V61H161.215V43H164.602ZM170.953 43V61H167.566V43H170.953ZM179.578 61.2344C178.594 61.2344 177.711 61.0781 176.93 60.7656C176.148 60.4453 175.484 60.0039 174.938 59.4414C174.398 58.8789 173.984 58.2266 173.695 57.4844C173.406 56.7344 173.262 55.9375 173.262 55.0938V54.625C173.262 53.6641 173.398 52.7852 173.672 51.9883C173.945 51.1914 174.336 50.5 174.844 49.9141C175.359 49.3281 175.984 48.8789 176.719 48.5664C177.453 48.2461 178.281 48.0859 179.203 48.0859C180.102 48.0859 180.898 48.2344 181.594 48.5312C182.289 48.8281 182.871 49.25 183.34 49.7969C183.816 50.3438 184.176 51 184.418 51.7656C184.66 52.5234 184.781 53.3672 184.781 54.2969V55.7031H174.703V53.4531H181.465V53.1953C181.465 52.7266 181.379 52.3086 181.207 51.9414C181.043 51.5664 180.793 51.2695 180.457 51.0508C180.121 50.832 179.691 50.7227 179.168 50.7227C178.723 50.7227 178.34 50.8203 178.02 51.0156C177.699 51.2109 177.438 51.4844 177.234 51.8359C177.039 52.1875 176.891 52.6016 176.789 53.0781C176.695 53.5469 176.648 54.0625 176.648 54.625V55.0938C176.648 55.6016 176.719 56.0703 176.859 56.5C177.008 56.9297 177.215 57.3008 177.48 57.6133C177.754 57.9258 178.082 58.168 178.465 58.3398C178.855 58.5117 179.297 58.5977 179.789 58.5977C180.398 58.5977 180.965 58.4805 181.488 58.2461C182.02 58.0039 182.477 57.6406 182.859 57.1562L184.5 58.9375C184.234 59.3203 183.871 59.6875 183.41 60.0391C182.957 60.3906 182.41 60.6797 181.77 60.9062C181.129 61.125 180.398 61.2344 179.578 61.2344ZM190.008 51.0273V61H186.633V48.3203H189.797L190.008 51.0273ZM189.516 54.2148H188.602C188.602 53.2773 188.723 52.4336 188.965 51.6836C189.207 50.9258 189.547 50.2812 189.984 49.75C190.422 49.2109 190.941 48.8008 191.543 48.5195C192.152 48.2305 192.832 48.0859 193.582 48.0859C194.176 48.0859 194.719 48.1719 195.211 48.3438C195.703 48.5156 196.125 48.7891 196.477 49.1641C196.836 49.5391 197.109 50.0352 197.297 50.6523C197.492 51.2695 197.59 52.0234 197.59 52.9141V61H194.191V52.9023C194.191 52.3398 194.113 51.9023 193.957 51.5898C193.801 51.2773 193.57 51.0586 193.266 50.9336C192.969 50.8008 192.602 50.7344 192.164 50.7344C191.711 50.7344 191.316 50.8242 190.98 51.0039C190.652 51.1836 190.379 51.4336 190.16 51.7539C189.949 52.0664 189.789 52.4336 189.68 52.8555C189.57 53.2773 189.516 53.7305 189.516 54.2148ZM208.184 48.3203H211.242V60.5781C211.242 61.7344 210.984 62.7148 210.469 63.5195C209.961 64.332 209.25 64.9453 208.336 65.3594C207.422 65.7812 206.359 65.9922 205.148 65.9922C204.617 65.9922 204.055 65.9219 203.461 65.7812C202.875 65.6406 202.312 65.4219 201.773 65.125C201.242 64.8281 200.797 64.4531 200.438 64L201.926 62.0078C202.316 62.4609 202.77 62.8125 203.285 63.0625C203.801 63.3203 204.371 63.4492 204.996 63.4492C205.605 63.4492 206.121 63.3359 206.543 63.1094C206.965 62.8906 207.289 62.5664 207.516 62.1367C207.742 61.7148 207.855 61.2031 207.855 60.6016V51.25L208.184 48.3203ZM199.652 54.8125V54.5664C199.652 53.5977 199.77 52.7188 200.004 51.9297C200.246 51.1328 200.586 50.4492 201.023 49.8789C201.469 49.3086 202.008 48.8672 202.641 48.5547C203.273 48.2422 203.988 48.0859 204.785 48.0859C205.629 48.0859 206.336 48.2422 206.906 48.5547C207.477 48.8672 207.945 49.3125 208.312 49.8906C208.68 50.4609 208.965 51.1367 209.168 51.918C209.379 52.6914 209.543 53.5391 209.66 54.4609V55C209.543 55.8828 209.367 56.7031 209.133 57.4609C208.898 58.2188 208.59 58.8828 208.207 59.4531C207.824 60.0156 207.348 60.4531 206.777 60.7656C206.215 61.0781 205.543 61.2344 204.762 61.2344C203.98 61.2344 203.273 61.0742 202.641 60.7539C202.016 60.4336 201.48 59.9844 201.035 59.4062C200.59 58.8281 200.246 58.1484 200.004 57.3672C199.77 56.5859 199.652 55.7344 199.652 54.8125ZM203.027 54.5664V54.8125C203.027 55.3359 203.078 55.8242 203.18 56.2773C203.281 56.7305 203.438 57.1328 203.648 57.4844C203.867 57.8281 204.137 58.0977 204.457 58.293C204.785 58.4805 205.172 58.5742 205.617 58.5742C206.234 58.5742 206.738 58.4453 207.129 58.1875C207.52 57.9219 207.812 57.5586 208.008 57.0977C208.203 56.6367 208.316 56.1055 208.348 55.5039V53.9688C208.332 53.4766 208.266 53.0352 208.148 52.6445C208.031 52.2461 207.867 51.9062 207.656 51.625C207.445 51.3438 207.172 51.125 206.836 50.9688C206.5 50.8125 206.102 50.7344 205.641 50.7344C205.195 50.7344 204.809 50.8359 204.48 51.0391C204.16 51.2344 203.891 51.5039 203.672 51.8477C203.461 52.1914 203.301 52.5977 203.191 53.0664C203.082 53.5273 203.027 54.0273 203.027 54.5664ZM219.703 61.2344C218.719 61.2344 217.836 61.0781 217.055 60.7656C216.273 60.4453 215.609 60.0039 215.062 59.4414C214.523 58.8789 214.109 58.2266 213.82 57.4844C213.531 56.7344 213.387 55.9375 213.387 55.0938V54.625C213.387 53.6641 213.523 52.7852 213.797 51.9883C214.07 51.1914 214.461 50.5 214.969 49.9141C215.484 49.3281 216.109 48.8789 216.844 48.5664C217.578 48.2461 218.406 48.0859 219.328 48.0859C220.227 48.0859 221.023 48.2344 221.719 48.5312C222.414 48.8281 222.996 49.25 223.465 49.7969C223.941 50.3438 224.301 51 224.543 51.7656C224.785 52.5234 224.906 53.3672 224.906 54.2969V55.7031H214.828V53.4531H221.59V53.1953C221.59 52.7266 221.504 52.3086 221.332 51.9414C221.168 51.5664 220.918 51.2695 220.582 51.0508C220.246 50.832 219.816 50.7227 219.293 50.7227C218.848 50.7227 218.465 50.8203 218.145 51.0156C217.824 51.2109 217.562 51.4844 217.359 51.8359C217.164 52.1875 217.016 52.6016 216.914 53.0781C216.82 53.5469 216.773 54.0625 216.773 54.625V55.0938C216.773 55.6016 216.844 56.0703 216.984 56.5C217.133 56.9297 217.34 57.3008 217.605 57.6133C217.879 57.9258 218.207 58.168 218.59 58.3398C218.98 58.5117 219.422 58.5977 219.914 58.5977C220.523 58.5977 221.09 58.4805 221.613 58.2461C222.145 58.0039 222.602 57.6406 222.984 57.1562L224.625 58.9375C224.359 59.3203 223.996 59.6875 223.535 60.0391C223.082 60.3906 222.535 60.6797 221.895 60.9062C221.254 61.125 220.523 61.2344 219.703 61.2344ZM230.203 51.0859V61H226.828V48.3203H230.004L230.203 51.0859ZM234.023 48.2383L233.965 51.3672C233.801 51.3438 233.602 51.3242 233.367 51.3086C233.141 51.2852 232.934 51.2734 232.746 51.2734C232.27 51.2734 231.855 51.3359 231.504 51.4609C231.16 51.5781 230.871 51.7539 230.637 51.9883C230.41 52.2227 230.238 52.5078 230.121 52.8438C230.012 53.1797 229.949 53.5625 229.934 53.9922L229.254 53.7812C229.254 52.9609 229.336 52.207 229.5 51.5195C229.664 50.8242 229.902 50.2188 230.215 49.7031C230.535 49.1875 230.926 48.7891 231.387 48.5078C231.848 48.2266 232.375 48.0859 232.969 48.0859C233.156 48.0859 233.348 48.1016 233.543 48.1328C233.738 48.1562 233.898 48.1914 234.023 48.2383Z" fill="#888888"/>
<path d="M109.219 107.422H100.734V101.07H109.219C110.375 101.07 111.312 100.875 112.031 100.484C112.75 100.094 113.273 99.5547 113.602 98.8672C113.945 98.1641 114.117 97.375 114.117 96.5C114.117 95.5625 113.945 94.6953 113.602 93.8984C113.273 93.1016 112.75 92.4609 112.031 91.9766C111.312 91.4766 110.375 91.2266 109.219 91.2266H103.828V119H95.6016V84.875H109.219C111.953 84.875 114.305 85.375 116.273 86.375C118.258 87.375 119.781 88.75 120.844 90.5C121.906 92.2344 122.438 94.2188 122.438 96.4531C122.438 98.6562 121.906 100.578 120.844 102.219C119.781 103.859 118.258 105.141 116.273 106.062C114.305 106.969 111.953 107.422 109.219 107.422ZM134.461 99.9219V119H126.562V93.6406H133.945L134.461 99.9219ZM141.961 93.4531L141.82 100.789C141.508 100.758 141.086 100.719 140.555 100.672C140.023 100.625 139.578 100.602 139.219 100.602C138.297 100.602 137.5 100.711 136.828 100.93C136.172 101.133 135.625 101.445 135.188 101.867C134.766 102.273 134.453 102.789 134.25 103.414C134.062 104.039 133.977 104.766 133.992 105.594L132.562 104.656C132.562 102.953 132.727 101.406 133.055 100.016C133.398 98.6094 133.883 97.3984 134.508 96.3828C135.133 95.3516 135.891 94.5625 136.781 94.0156C137.672 93.4531 138.672 93.1719 139.781 93.1719C140.172 93.1719 140.555 93.1953 140.93 93.2422C141.32 93.2891 141.664 93.3594 141.961 93.4531ZM142.852 106.578V106.086C142.852 104.227 143.117 102.516 143.648 100.953C144.18 99.375 144.961 98.0078 145.992 96.8516C147.023 95.6953 148.297 94.7969 149.812 94.1562C151.328 93.5 153.078 93.1719 155.062 93.1719C157.062 93.1719 158.82 93.5 160.336 94.1562C161.867 94.7969 163.148 95.6953 164.18 96.8516C165.211 98.0078 165.992 99.375 166.523 100.953C167.055 102.516 167.32 104.227 167.32 106.086V106.578C167.32 108.422 167.055 110.133 166.523 111.711C165.992 113.273 165.211 114.641 164.18 115.812C163.148 116.969 161.875 117.867 160.359 118.508C158.844 119.148 157.094 119.469 155.109 119.469C153.125 119.469 151.367 119.148 149.836 118.508C148.305 117.867 147.023 116.969 145.992 115.812C144.961 114.641 144.18 113.273 143.648 111.711C143.117 110.133 142.852 108.422 142.852 106.578ZM150.75 106.086V106.578C150.75 107.531 150.82 108.422 150.961 109.25C151.102 110.078 151.336 110.805 151.664 111.43C151.992 112.039 152.438 112.516 153 112.859C153.562 113.203 154.266 113.375 155.109 113.375C155.938 113.375 156.625 113.203 157.172 112.859C157.734 112.516 158.18 112.039 158.508 111.43C158.836 110.805 159.07 110.078 159.211 109.25C159.352 108.422 159.422 107.531 159.422 106.578V106.086C159.422 105.164 159.352 104.297 159.211 103.484C159.07 102.656 158.836 101.93 158.508 101.305C158.18 100.664 157.734 100.164 157.172 99.8047C156.609 99.4453 155.906 99.2656 155.062 99.2656C154.234 99.2656 153.539 99.4453 152.977 99.8047C152.43 100.164 151.992 100.664 151.664 101.305C151.336 101.93 151.102 102.656 150.961 103.484C150.82 104.297 150.75 105.164 150.75 106.086ZM184.195 93.6406V99.125H168.914V93.6406H184.195ZM172.125 87.3359H180.023V110.727C180.023 111.398 180.102 111.922 180.258 112.297C180.414 112.656 180.68 112.914 181.055 113.07C181.445 113.211 181.961 113.281 182.602 113.281C183.055 113.281 183.43 113.273 183.727 113.258C184.023 113.227 184.305 113.188 184.57 113.141V118.789C183.898 119.008 183.195 119.172 182.461 119.281C181.727 119.406 180.945 119.469 180.117 119.469C178.43 119.469 176.984 119.203 175.781 118.672C174.594 118.141 173.688 117.305 173.062 116.164C172.438 115.023 172.125 113.539 172.125 111.711V87.3359ZM185.648 106.578V106.086C185.648 104.227 185.914 102.516 186.445 100.953C186.977 99.375 187.758 98.0078 188.789 96.8516C189.82 95.6953 191.094 94.7969 192.609 94.1562C194.125 93.5 195.875 93.1719 197.859 93.1719C199.859 93.1719 201.617 93.5 203.133 94.1562C204.664 94.7969 205.945 95.6953 206.977 96.8516C208.008 98.0078 208.789 99.375 209.32 100.953C209.852 102.516 210.117 104.227 210.117 106.086V106.578C210.117 108.422 209.852 110.133 209.32 111.711C208.789 113.273 208.008 114.641 206.977 115.812C205.945 116.969 204.672 117.867 203.156 118.508C201.641 119.148 199.891 119.469 197.906 119.469C195.922 119.469 194.164 119.148 192.633 118.508C191.102 117.867 189.82 116.969 188.789 115.812C187.758 114.641 186.977 113.273 186.445 111.711C185.914 110.133 185.648 108.422 185.648 106.578ZM193.547 106.086V106.578C193.547 107.531 193.617 108.422 193.758 109.25C193.898 110.078 194.133 110.805 194.461 111.43C194.789 112.039 195.234 112.516 195.797 112.859C196.359 113.203 197.062 113.375 197.906 113.375C198.734 113.375 199.422 113.203 199.969 112.859C200.531 112.516 200.977 112.039 201.305 111.43C201.633 110.805 201.867 110.078 202.008 109.25C202.148 108.422 202.219 107.531 202.219 106.578V106.086C202.219 105.164 202.148 104.297 202.008 103.484C201.867 102.656 201.633 101.93 201.305 101.305C200.977 100.664 200.531 100.164 199.969 99.8047C199.406 99.4453 198.703 99.2656 197.859 99.2656C197.031 99.2656 196.336 99.4453 195.773 99.8047C195.227 100.164 194.789 100.664 194.461 101.305C194.133 101.93 193.898 102.656 193.758 103.484C193.617 104.297 193.547 105.164 193.547 106.086ZM226.992 93.6406V99.125H211.711V93.6406H226.992ZM214.922 87.3359H222.82V110.727C222.82 111.398 222.898 111.922 223.055 112.297C223.211 112.656 223.477 112.914 223.852 113.07C224.242 113.211 224.758 113.281 225.398 113.281C225.852 113.281 226.227 113.273 226.523 113.258C226.82 113.227 227.102 113.188 227.367 113.141V118.789C226.695 119.008 225.992 119.172 225.258 119.281C224.523 119.406 223.742 119.469 222.914 119.469C221.227 119.469 219.781 119.203 218.578 118.672C217.391 118.141 216.484 117.305 215.859 116.164C215.234 115.023 214.922 113.539 214.922 111.711V87.3359ZM237.914 116.023L244.477 93.6406H252.961L242.766 122.773C242.547 123.414 242.258 124.102 241.898 124.836C241.539 125.586 241.047 126.297 240.422 126.969C239.797 127.641 238.992 128.188 238.008 128.609C237.039 129.031 235.836 129.242 234.398 129.242C233.633 129.242 233.07 129.203 232.711 129.125C232.367 129.062 231.836 128.945 231.117 128.773V123.125C231.32 123.125 231.492 123.125 231.633 123.125C231.789 123.125 231.961 123.125 232.148 123.125C232.992 123.125 233.664 123.039 234.164 122.867C234.68 122.695 235.07 122.445 235.336 122.117C235.617 121.789 235.836 121.391 235.992 120.922L237.914 116.023ZM236.25 93.6406L241.242 111.383L242.109 119.75H236.812L227.789 93.6406H236.25ZM262.992 98.5156V128.75H255.094V93.6406H262.453L262.992 98.5156ZM278.555 106.016V106.508C278.555 108.352 278.344 110.062 277.922 111.641C277.5 113.219 276.875 114.594 276.047 115.766C275.219 116.938 274.188 117.852 272.953 118.508C271.734 119.148 270.32 119.469 268.711 119.469C267.195 119.469 265.891 119.133 264.797 118.461C263.703 117.789 262.789 116.859 262.055 115.672C261.32 114.484 260.727 113.125 260.273 111.594C259.82 110.062 259.461 108.445 259.195 106.742V106.109C259.461 104.281 259.82 102.586 260.273 101.023C260.727 99.4453 261.32 98.0703 262.055 96.8984C262.789 95.7266 263.695 94.8125 264.773 94.1562C265.867 93.5 267.172 93.1719 268.688 93.1719C270.297 93.1719 271.711 93.4766 272.93 94.0859C274.164 94.6953 275.195 95.5703 276.023 96.7109C276.867 97.8359 277.5 99.1875 277.922 100.766C278.344 102.344 278.555 104.094 278.555 106.016ZM270.656 106.508V106.016C270.656 105.031 270.586 104.133 270.445 103.32C270.305 102.492 270.078 101.773 269.766 101.164C269.469 100.555 269.07 100.086 268.57 99.7578C268.07 99.4297 267.453 99.2656 266.719 99.2656C265.875 99.2656 265.164 99.3984 264.586 99.6641C264.023 99.9141 263.57 100.305 263.227 100.836C262.898 101.352 262.664 102 262.523 102.781C262.398 103.547 262.344 104.445 262.359 105.477V107.398C262.328 108.586 262.445 109.633 262.711 110.539C262.977 111.43 263.438 112.125 264.094 112.625C264.75 113.125 265.641 113.375 266.766 113.375C267.516 113.375 268.141 113.203 268.641 112.859C269.141 112.5 269.539 112.008 269.836 111.383C270.133 110.742 270.344 110.008 270.469 109.18C270.594 108.352 270.656 107.461 270.656 106.508ZM290.414 93.6406V119H282.492V93.6406H290.414ZM282.023 87.1016C282.023 85.9766 282.43 85.0547 283.242 84.3359C284.055 83.6172 285.109 83.2578 286.406 83.2578C287.703 83.2578 288.758 83.6172 289.57 84.3359C290.383 85.0547 290.789 85.9766 290.789 87.1016C290.789 88.2266 290.383 89.1484 289.57 89.8672C288.758 90.5859 287.703 90.9453 286.406 90.9453C285.109 90.9453 284.055 90.5859 283.242 89.8672C282.43 89.1484 282.023 88.2266 282.023 87.1016ZM303.047 99.0547V119H295.148V93.6406H302.555L303.047 99.0547ZM302.109 105.453L300.258 105.5C300.258 103.562 300.492 101.836 300.961 100.32C301.43 98.7891 302.094 97.4922 302.953 96.4297C303.812 95.3672 304.836 94.5625 306.023 94.0156C307.227 93.4531 308.562 93.1719 310.031 93.1719C311.203 93.1719 312.273 93.3438 313.242 93.6875C314.227 94.0312 315.07 94.5859 315.773 95.3516C316.492 96.1172 317.039 97.1328 317.414 98.3984C317.805 99.6484 318 101.195 318 103.039V119H310.055V103.016C310.055 102 309.914 101.227 309.633 100.695C309.352 100.148 308.945 99.7734 308.414 99.5703C307.883 99.3672 307.234 99.2656 306.469 99.2656C305.656 99.2656 304.969 99.4219 304.406 99.7344C303.844 100.047 303.391 100.484 303.047 101.047C302.719 101.594 302.477 102.242 302.32 102.992C302.18 103.742 302.109 104.562 302.109 105.453ZM338.32 93.6406H345.492V118.016C345.492 120.359 344.953 122.344 343.875 123.969C342.797 125.609 341.289 126.852 339.352 127.695C337.43 128.555 335.18 128.984 332.602 128.984C331.461 128.984 330.297 128.836 329.109 128.539C327.922 128.258 326.812 127.836 325.781 127.273C324.75 126.711 323.883 126.016 323.18 125.188L326.484 120.547C327.125 121.266 327.93 121.875 328.898 122.375C329.867 122.891 331.008 123.148 332.32 123.148C333.461 123.148 334.414 122.945 335.18 122.539C335.961 122.133 336.555 121.539 336.961 120.758C337.367 119.992 337.57 119.062 337.57 117.969V99.6406L338.32 93.6406ZM321.469 106.625V106.133C321.469 104.211 321.703 102.461 322.172 100.883C322.656 99.2891 323.344 97.9219 324.234 96.7812C325.141 95.625 326.234 94.7344 327.516 94.1094C328.797 93.4844 330.242 93.1719 331.852 93.1719C333.586 93.1719 335.008 93.5078 336.117 94.1797C337.242 94.8359 338.141 95.7578 338.812 96.9453C339.5 98.1328 340.031 99.5234 340.406 101.117C340.797 102.695 341.125 104.398 341.391 106.227V106.812C341.125 108.531 340.758 110.156 340.289 111.688C339.836 113.203 339.242 114.547 338.508 115.719C337.773 116.891 336.852 117.812 335.742 118.484C334.648 119.141 333.336 119.469 331.805 119.469C330.211 119.469 328.773 119.148 327.492 118.508C326.227 117.867 325.141 116.969 324.234 115.812C323.344 114.656 322.656 113.297 322.172 111.734C321.703 110.172 321.469 108.469 321.469 106.625ZM329.367 106.133V106.625C329.367 107.578 329.453 108.461 329.625 109.273C329.812 110.086 330.094 110.805 330.469 111.43C330.844 112.039 331.305 112.516 331.852 112.859C332.414 113.203 333.07 113.375 333.82 113.375C334.961 113.375 335.883 113.133 336.586 112.648C337.289 112.164 337.797 111.477 338.109 110.586C338.422 109.695 338.555 108.648 338.508 107.445V105.594C338.539 104.562 338.469 103.656 338.297 102.875C338.125 102.078 337.852 101.414 337.477 100.883C337.117 100.352 336.633 99.9531 336.023 99.6875C335.43 99.4062 334.711 99.2656 333.867 99.2656C333.133 99.2656 332.484 99.4375 331.922 99.7812C331.359 100.125 330.891 100.609 330.516 101.234C330.141 101.844 329.852 102.57 329.648 103.414C329.461 104.242 329.367 105.148 329.367 106.133Z" fill="black"/>
<path d="M1134 0H1348C1356.28 0 1363 6.71573 1363 15V148C1363 156.284 1356.28 163 1348 163H1134V0Z" fill="#2FD671"/>
<path fill-rule="evenodd" clip-rule="evenodd" d="M1202.75 46.5018C1202.75 45.3973 1203.65 44.5018 1204.75 44.5018H1292.25C1293.35 44.5018 1294.25 45.3973 1294.25 46.5018V116.498C1294.25 117.603 1293.35 118.498 1292.25 118.498H1204.75C1203.65 118.498 1202.75 117.603 1202.75 116.498V46.5018ZM1206.75 48.5018V52.9963H1290.25V48.5018H1206.75ZM1290.25 56.9963H1235.19V114.498H1290.25V56.9963ZM1231.19 114.498V56.9963H1206.75V114.498H1231.19Z" fill="white"/>
<path fill-rule="evenodd" clip-rule="evenodd" d="M1209.72 62.3022C1209.72 61.1976 1210.62 60.3022 1211.72 60.3022H1225.72C1226.83 60.3022 1227.72 61.1976 1227.72 62.3022V81.6974C1227.72 82.802 1226.83 83.6974 1225.72 83.6974H1211.72C1210.62 83.6974 1209.72 82.802 1209.72 81.6974V62.3022ZM1213.72 64.3022V79.6974H1223.72V64.3022H1213.72ZM1239.33 63.1982C1239.33 62.0936 1240.22 61.1982 1241.33 61.1982H1284.25C1285.36 61.1982 1286.25 62.0936 1286.25 63.1982V109.407C1286.25 110.511 1285.36 111.407 1284.25 111.407H1241.33C1240.22 111.407 1239.33 110.511 1239.33 109.407V63.1982ZM1243.33 65.1982V107.407H1282.25V65.1982H1243.33ZM1209.56 93.4381C1209.56 92.3336 1210.46 91.4381 1211.56 91.4381H1220.48C1221.59 91.4381 1222.48 92.3336 1222.48 93.4381C1222.48 94.5427 1221.59 95.4381 1220.48 95.4381H1211.56C1210.46 95.4381 1209.56 94.5427 1209.56 93.4381ZM1209.56 100.438C1209.56 99.3335 1210.46 98.4381 1211.56 98.4381H1226.1C1227.21 98.4381 1228.1 99.3335 1228.1 100.438C1228.1 101.543 1227.21 102.438 1226.1 102.438H1211.56C1210.46 102.438 1209.56 101.543 1209.56 100.438ZM1209.56 107.438C1209.56 106.334 1210.46 105.438 1211.56 105.438H1220.48C1221.59 105.438 1222.48 106.334 1222.48 107.438C1222.48 108.543 1221.59 109.438 1220.48 109.438H1211.56C1210.46 109.438 1209.56 108.543 1209.56 107.438Z" fill="white"/>
</svg>
